<mxfile host="app.diagrams.net" modified="2023-05-21T23:19:50.476Z" agent="Mozilla/5.0 (Windows NT 10.0; Win64; x64) AppleWebKit/537.36 (KHTML, like Gecko) Chrome/113.0.0.0 Safari/537.36 Edg/113.0.1774.42" etag="tmQQNGd5GUdy6kHIBhES" version="21.3.2" type="device">
  <diagram name="Page-1" id="sQJWqML8wfLAOflK8wk8">
    <mxGraphModel dx="4657" dy="1746" grid="1" gridSize="10" guides="1" tooltips="1" connect="1" arrows="1" fold="1" page="1" pageScale="1" pageWidth="850" pageHeight="1100" math="0" shadow="0">
      <root>
        <mxCell id="0" />
        <mxCell id="1" parent="0" />
        <UserObject label="" Function="EN_DIO_Error_T DIO_init(uint8_t pinNumber, EN_DIO_PORT_T portNumber, EN_DIO_DIRECTION_T direction);" tags="Flowchart" id="05g8EHRjyKozir9RmIMq-2">
          <mxCell style="vsdxID=280;fillColor=#e1d5e7;shape=stencil(UzV2Ls5ILEhVNTIoLinKz04tz0wpyVA1dlE1MsrMy0gtyiwBslSNXVWNndPyi1LTi/JL81Ig/IJEkEoQKze/DGRCBUSfrqGJnoEZSJuRQSVEyNDAAMx3g6jPycxDUm9hqmdpQrxyQ0zj8akmRTFhlwMZCG+nZebkQEINWR49mIBCkCA2dgUA);strokeColor=#9673a6;spacingTop=-1;spacingBottom=-1;spacingLeft=-1;spacingRight=-1;points=[[0,0.5,0],[1,0.5,0],[0.5,1,0],[0.5,0,0]];labelBackgroundColor=none;rounded=1;html=1;whiteSpace=wrap;fontFamily=Calibri;" vertex="1" parent="1">
            <mxGeometry x="-2542.5" y="-780" width="101" height="38" as="geometry" />
          </mxCell>
        </UserObject>
        <mxCell id="05g8EHRjyKozir9RmIMq-3" value="&lt;div style=&quot;font-size: 1px&quot;&gt;&lt;br&gt;&lt;/div&gt;" style="text;vsdxID=280;fillColor=none;gradientColor=none;strokeColor=none;spacingTop=-1;spacingBottom=-1;spacingLeft=-1;spacingRight=-1;points=[[0,0.5,0],[1,0.5,0],[0.5,1,0],[0.5,0,0]];labelBackgroundColor=none;rounded=1;html=1;whiteSpace=wrap;verticalAlign=middle;align=center;overflow=width;;html=1;fontColor=#000000;fontFamily=Calibri;" vertex="1" parent="05g8EHRjyKozir9RmIMq-2">
          <mxGeometry x="16.93" y="-0.09999999999999999" width="67.73" height="38.099999999999994" as="geometry" />
        </mxCell>
        <UserObject label="&lt;div style=&quot;font-size: 1px&quot;&gt;&lt;font style=&quot;font-size: 11.29px; direction: ltr; letter-spacing: 0px; line-height: 120%; opacity: 1;&quot;&gt;&lt;br&gt;&lt;/font&gt;&lt;/div&gt;" Function="EN_DIO_Error_T DIO_init(uint8_t pinNumber, EN_DIO_PORT_T portNumber, EN_DIO_DIRECTION_T direction);" tags="Flowchart" id="05g8EHRjyKozir9RmIMq-4">
          <mxCell style="verticalAlign=middle;align=center;overflow=width;vsdxID=30;fillColor=#dae8fc;shape=stencil(tVLREoIgEPwaHnEQxsl3s/9gEpSJwDko7e+DsEkze2l627vdu5uFRaxyHe8FosR5sCcxqMZ3iO0Rpcp0ApQPCLEasUpaEC3Yi2lS3fOojOhsr3HDmObyMtsVcYqS29Qh5FEfklwrM5OXeUa/yjkcAwfr7TDpiyTfXvjkMR+Vw2A998qaBac5tAKHU1hq3i4oNwjRr9ofvayt/+Rk+yX/4iWA159KpXWKxJx/z0Bopfyw+g4=);strokeColor=#6c8ebf;spacingTop=-1;spacingBottom=-1;spacingLeft=-1;spacingRight=-1;points=[[0.5,1,0],[0.5,0,0],[0,0.5,0],[1,0.5,0]];labelBackgroundColor=none;rounded=1;html=1;whiteSpace=wrap;fontFamily=Calibri;" vertex="1" parent="1">
            <mxGeometry x="-2542.5" y="-1100" width="101" height="38" as="geometry" />
          </mxCell>
        </UserObject>
        <mxCell id="05g8EHRjyKozir9RmIMq-5" value="Start" style="text;html=1;align=center;verticalAlign=middle;resizable=0;points=[];autosize=1;strokeColor=none;fillColor=none;fontSize=16;" vertex="1" parent="1">
          <mxGeometry x="-2364.5" y="-1096.5" width="52" height="31" as="geometry" />
        </mxCell>
        <UserObject label="&lt;div style=&quot;font-size: 1px&quot;&gt;&lt;font style=&quot;font-size: 11.29px; direction: ltr; letter-spacing: 0px; line-height: 120%; opacity: 1;&quot;&gt;&lt;br&gt;&lt;/font&gt;&lt;/div&gt;" Function="EN_DIO_Error_T DIO_init(uint8_t pinNumber, EN_DIO_PORT_T portNumber, EN_DIO_DIRECTION_T direction);" tags="Flowchart" id="05g8EHRjyKozir9RmIMq-6">
          <mxCell style="verticalAlign=middle;align=center;overflow=width;vsdxID=52;fillColor=#d5e8d4;shape=stencil(tVLREoIgEPwaHnEQxsl3s/9gEpSJwDko7e+DsEkze2l627vdu5uFRaxyHe8FosR5sCcxqMZ3iO0Rpcp0ApQPCLEasUpaEC3Yi2lS3fOojOhsr3HDmObyMtsVcYqS29Qh5FEfklwrM5OXeUa/yjkcAwfr7TDpiyTfXvjkMR+Vw2A998qaBac5tAKHU1hq3i4oNwjRr9ofvayt/+Rk+yX/4iWA159KpXWKxJx/z0Bopfyw+g4=);strokeColor=#82b366;spacingTop=-1;spacingBottom=-1;spacingLeft=-1;spacingRight=-1;points=[[0.5,1,0],[0.5,0,0],[0,0.5,0],[1,0.5,0]];labelBackgroundColor=none;rounded=1;html=1;whiteSpace=wrap;fontFamily=Calibri;" vertex="1" parent="1">
            <mxGeometry x="-2542.5" y="-1032" width="101" height="38" as="geometry" />
          </mxCell>
        </UserObject>
        <mxCell id="05g8EHRjyKozir9RmIMq-7" value="Return ErrorState OK&amp;nbsp;" style="text;html=1;align=center;verticalAlign=middle;resizable=0;points=[];autosize=1;strokeColor=none;fillColor=none;fontSize=16;" vertex="1" parent="1">
          <mxGeometry x="-2426" y="-1028.5" width="175" height="31" as="geometry" />
        </mxCell>
        <UserObject label="&lt;div style=&quot;font-size: 1px&quot;&gt;&lt;font style=&quot;font-size: 11.29px; direction: ltr; letter-spacing: 0px; line-height: 120%; opacity: 1;&quot;&gt;&lt;br&gt;&lt;/font&gt;&lt;/div&gt;" Function="EN_DIO_Error_T DIO_init(uint8_t pinNumber, EN_DIO_PORT_T portNumber, EN_DIO_DIRECTION_T direction);" tags="Flowchart" id="05g8EHRjyKozir9RmIMq-8">
          <mxCell style="verticalAlign=middle;align=center;overflow=width;vsdxID=52;fillColor=#f8cecc;shape=stencil(tVLREoIgEPwaHnEQxsl3s/9gEpSJwDko7e+DsEkze2l627vdu5uFRaxyHe8FosR5sCcxqMZ3iO0Rpcp0ApQPCLEasUpaEC3Yi2lS3fOojOhsr3HDmObyMtsVcYqS29Qh5FEfklwrM5OXeUa/yjkcAwfr7TDpiyTfXvjkMR+Vw2A998qaBac5tAKHU1hq3i4oNwjRr9ofvayt/+Rk+yX/4iWA159KpXWKxJx/z0Bopfyw+g4=);strokeColor=#b85450;spacingTop=-1;spacingBottom=-1;spacingLeft=-1;spacingRight=-1;points=[[0.5,1,0],[0.5,0,0],[0,0.5,0],[1,0.5,0]];labelBackgroundColor=none;rounded=1;html=1;whiteSpace=wrap;fontFamily=Calibri;" vertex="1" parent="1">
            <mxGeometry x="-2542.5" y="-964" width="101" height="38" as="geometry" />
          </mxCell>
        </UserObject>
        <mxCell id="05g8EHRjyKozir9RmIMq-9" value="Return ErrorState NOK&amp;nbsp;" style="text;html=1;align=center;verticalAlign=middle;resizable=0;points=[];autosize=1;strokeColor=none;fillColor=none;fontSize=16;" vertex="1" parent="1">
          <mxGeometry x="-2432" y="-960.5" width="187" height="31" as="geometry" />
        </mxCell>
        <UserObject label="" Function="EN_DIO_Error_T DIO_init(uint8_t pinNumber, EN_DIO_PORT_T portNumber, EN_DIO_DIRECTION_T direction);" tags="Flowchart" id="05g8EHRjyKozir9RmIMq-10">
          <mxCell style="vsdxID=219;fillColor=#fff2cc;shape=stencil(UzV2Ls5ILEhVNTIoLinKz04tz0wpyVA1dlE1MsrMy0gtyiwBslSNXVWNndPyi1LTi/JL81Ig/IJEkEoQKze/DGRCBUSfAUiHkUElhGcK4bpBVOZk5iGpNEVVikeloQHZpsK0YlWLz1QgA+HFtMycHEgIIcujBwlQCBKcxq4A);strokeColor=#d6b656;spacingTop=-1;spacingBottom=-1;spacingLeft=-1;spacingRight=-1;points=[[0,0.5,0],[1,0.5,0],[0.5,0,0],[0.5,1,0]];labelBackgroundColor=none;rounded=1;html=1;whiteSpace=wrap;fontFamily=Calibri;" vertex="1" parent="1">
            <mxGeometry x="-2542.5" y="-894" width="101" height="76" as="geometry" />
          </mxCell>
        </UserObject>
        <mxCell id="05g8EHRjyKozir9RmIMq-11" value="&lt;div style=&quot;font-size: 1px&quot;&gt;&lt;br&gt;&lt;/div&gt;" style="text;vsdxID=219;fillColor=none;gradientColor=none;strokeColor=none;spacingTop=-1;spacingBottom=-1;spacingLeft=-1;spacingRight=-1;points=[[0,0.5,0],[1,0.5,0],[0.5,0,0],[0.5,1,0]];labelBackgroundColor=none;rounded=1;html=1;whiteSpace=wrap;verticalAlign=middle;align=center;overflow=width;;html=1;fontColor=#000000;fontFamily=Calibri;" vertex="1" parent="05g8EHRjyKozir9RmIMq-10">
          <mxGeometry x="8.47" y="9.33" width="84.67" height="57.15" as="geometry" />
        </mxCell>
        <mxCell id="05g8EHRjyKozir9RmIMq-12" value="Decision" style="text;html=1;align=center;verticalAlign=middle;resizable=0;points=[];autosize=1;strokeColor=none;fillColor=none;fontSize=16;" vertex="1" parent="1">
          <mxGeometry x="-2378" y="-871.5" width="79" height="31" as="geometry" />
        </mxCell>
        <mxCell id="05g8EHRjyKozir9RmIMq-13" value="Input/Output" style="text;html=1;align=center;verticalAlign=middle;resizable=0;points=[];autosize=1;strokeColor=none;fillColor=none;fontSize=16;" vertex="1" parent="1">
          <mxGeometry x="-2391" y="-776.5" width="106" height="31" as="geometry" />
        </mxCell>
        <mxCell id="05g8EHRjyKozir9RmIMq-14" value="" style="rounded=0;whiteSpace=wrap;html=1;fontSize=16;fillColor=#d5e8d4;strokeColor=#82b366;" vertex="1" parent="1">
          <mxGeometry x="-2543.75" y="-697" width="103.5" height="44" as="geometry" />
        </mxCell>
        <mxCell id="05g8EHRjyKozir9RmIMq-15" value="Process" style="text;html=1;align=center;verticalAlign=middle;resizable=0;points=[];autosize=1;strokeColor=none;fillColor=none;fontSize=16;" vertex="1" parent="1">
          <mxGeometry x="-2376" y="-690.5" width="76" height="31" as="geometry" />
        </mxCell>
        <mxCell id="05g8EHRjyKozir9RmIMq-16" value="" style="endArrow=classic;html=1;rounded=0;fontSize=12;startSize=8;endSize=8;curved=1;" edge="1" parent="1">
          <mxGeometry width="50" height="50" relative="1" as="geometry">
            <mxPoint x="-2517" y="-562" as="sourcePoint" />
            <mxPoint x="-2467" y="-612" as="targetPoint" />
          </mxGeometry>
        </mxCell>
        <mxCell id="05g8EHRjyKozir9RmIMq-17" value="Arrows" style="text;html=1;align=center;verticalAlign=middle;resizable=0;points=[];autosize=1;strokeColor=none;fillColor=none;fontSize=16;" vertex="1" parent="1">
          <mxGeometry x="-2372" y="-604" width="68" height="31" as="geometry" />
        </mxCell>
        <mxCell id="05g8EHRjyKozir9RmIMq-18" value="" style="shape=process;whiteSpace=wrap;html=1;backgroundOutline=1;fontSize=16;fillColor=#ffe6cc;strokeColor=#d79b00;" vertex="1" parent="1">
          <mxGeometry x="-2550" y="-517" width="116" height="46" as="geometry" />
        </mxCell>
        <mxCell id="05g8EHRjyKozir9RmIMq-19" value="Sub-process" style="text;html=1;align=center;verticalAlign=middle;resizable=0;points=[];autosize=1;strokeColor=none;fillColor=none;fontSize=16;" vertex="1" parent="1">
          <mxGeometry x="-2392.5" y="-513" width="108" height="31" as="geometry" />
        </mxCell>
        <mxCell id="05g8EHRjyKozir9RmIMq-25" value="&lt;font style=&quot;font-size: 14px;&quot;&gt;Sub-process Name&lt;/font&gt;" style="swimlane;whiteSpace=wrap;html=1;rounded=1;fontSize=16;fontFamily=Calibri;fillColor=#ffe6cc;strokeColor=#d79b00;" vertex="1" parent="1">
          <mxGeometry x="-2579" y="-390" width="174" height="197" as="geometry">
            <mxRectangle x="-207" y="152.5" width="134" height="31" as="alternateBounds" />
          </mxGeometry>
        </mxCell>
        <mxCell id="05g8EHRjyKozir9RmIMq-84" value="" style="group" vertex="1" connectable="0" parent="1">
          <mxGeometry x="-2030" y="-1086.75" width="128.25" height="461.5" as="geometry" />
        </mxCell>
        <UserObject label="&lt;div style=&quot;font-size: 1px&quot;&gt;&lt;font style=&quot;font-size: 11.29px; direction: ltr; letter-spacing: 0px; line-height: 120%; opacity: 1;&quot;&gt;start&lt;/font&gt;&lt;/div&gt;" Function="EN_DIO_Error_T DIO_init(uint8_t pinNumber, EN_DIO_PORT_T portNumber, EN_DIO_DIRECTION_T direction);" tags="Flowchart" id="05g8EHRjyKozir9RmIMq-1">
          <mxCell style="verticalAlign=middle;align=center;overflow=width;vsdxID=30;fillColor=#dae8fc;shape=stencil(tVLREoIgEPwaHnEQxsl3s/9gEpSJwDko7e+DsEkze2l627vdu5uFRaxyHe8FosR5sCcxqMZ3iO0Rpcp0ApQPCLEasUpaEC3Yi2lS3fOojOhsr3HDmObyMtsVcYqS29Qh5FEfklwrM5OXeUa/yjkcAwfr7TDpiyTfXvjkMR+Vw2A998qaBac5tAKHU1hq3i4oNwjRr9ofvayt/+Rk+yX/4iWA159KpXWKxJx/z0Bopfyw+g4=);strokeColor=#6c8ebf;spacingTop=-1;spacingBottom=-1;spacingLeft=-1;spacingRight=-1;points=[[0.5,1,0],[0.5,0,0],[0,0.5,0],[1,0.5,0]];labelBackgroundColor=none;rounded=1;html=1;whiteSpace=wrap;fontFamily=Calibri;" vertex="1" parent="05g8EHRjyKozir9RmIMq-84">
            <mxGeometry x="10.930000000000064" y="48" width="101" height="38" as="geometry" />
          </mxCell>
        </UserObject>
        <mxCell id="05g8EHRjyKozir9RmIMq-20" value="Ultrasonic_init" style="text;html=1;strokeColor=#666666;fillColor=#f5f5f5;align=center;verticalAlign=middle;whiteSpace=wrap;rounded=0;fontColor=#333333;" vertex="1" parent="05g8EHRjyKozir9RmIMq-84">
          <mxGeometry x="6.430000000000064" width="110" height="30" as="geometry" />
        </mxCell>
        <mxCell id="05g8EHRjyKozir9RmIMq-21" value="&lt;font style=&quot;font-size: 12px;&quot;&gt;configure ICU clock&lt;br&gt;detection edge&lt;br&gt;interrupt source&lt;br&gt;&lt;/font&gt;" style="rounded=0;whiteSpace=wrap;html=1;fontSize=16;fillColor=#d5e8d4;strokeColor=#82b366;" vertex="1" parent="05g8EHRjyKozir9RmIMq-84">
          <mxGeometry x="9.690000000000055" y="119" width="108.86" height="64" as="geometry" />
        </mxCell>
        <mxCell id="05g8EHRjyKozir9RmIMq-53" style="edgeStyle=orthogonalEdgeStyle;rounded=0;orthogonalLoop=1;jettySize=auto;html=1;exitX=0.5;exitY=1;exitDx=0;exitDy=0;exitPerimeter=0;entryX=0.5;entryY=0;entryDx=0;entryDy=0;" edge="1" parent="05g8EHRjyKozir9RmIMq-84" source="05g8EHRjyKozir9RmIMq-1" target="05g8EHRjyKozir9RmIMq-21">
          <mxGeometry relative="1" as="geometry" />
        </mxCell>
        <mxCell id="05g8EHRjyKozir9RmIMq-22" value="&lt;font style=&quot;font-size: 12px;&quot;&gt;set ICU callback&lt;br&gt;to edgeprcossing&lt;/font&gt;" style="whiteSpace=wrap;html=1;fontSize=16;fillColor=#d5e8d4;strokeColor=#82b366;rounded=0;" vertex="1" parent="05g8EHRjyKozir9RmIMq-84">
          <mxGeometry y="223" width="128.25" height="60" as="geometry" />
        </mxCell>
        <mxCell id="05g8EHRjyKozir9RmIMq-58" style="edgeStyle=orthogonalEdgeStyle;rounded=0;orthogonalLoop=1;jettySize=auto;html=1;exitX=0.5;exitY=1;exitDx=0;exitDy=0;entryX=0.5;entryY=0;entryDx=0;entryDy=0;" edge="1" parent="05g8EHRjyKozir9RmIMq-84" source="05g8EHRjyKozir9RmIMq-21" target="05g8EHRjyKozir9RmIMq-22">
          <mxGeometry relative="1" as="geometry" />
        </mxCell>
        <UserObject label="&lt;div style=&quot;font-size: 1px&quot;&gt;&lt;font style=&quot;font-size: 11.29px; direction: ltr; letter-spacing: 0px; line-height: 120%; opacity: 1;&quot;&gt;end&lt;/font&gt;&lt;/div&gt;" Function="EN_DIO_Error_T DIO_init(uint8_t pinNumber, EN_DIO_PORT_T portNumber, EN_DIO_DIRECTION_T direction);" tags="Flowchart" id="05g8EHRjyKozir9RmIMq-56">
          <mxCell style="verticalAlign=middle;align=center;overflow=width;vsdxID=30;fillColor=#dae8fc;shape=stencil(tVLREoIgEPwaHnEQxsl3s/9gEpSJwDko7e+DsEkze2l627vdu5uFRaxyHe8FosR5sCcxqMZ3iO0Rpcp0ApQPCLEasUpaEC3Yi2lS3fOojOhsr3HDmObyMtsVcYqS29Qh5FEfklwrM5OXeUa/yjkcAwfr7TDpiyTfXvjkMR+Vw2A998qaBac5tAKHU1hq3i4oNwjRr9ofvayt/+Rk+yX/4iWA159KpXWKxJx/z0Bopfyw+g4=);strokeColor=#6c8ebf;spacingTop=-1;spacingBottom=-1;spacingLeft=-1;spacingRight=-1;points=[[0.5,1,0],[0.5,0,0],[0,0.5,0],[1,0.5,0]];labelBackgroundColor=none;rounded=1;html=1;whiteSpace=wrap;fontFamily=Calibri;" vertex="1" parent="05g8EHRjyKozir9RmIMq-84">
            <mxGeometry x="13.620000000000118" y="423.5" width="101" height="38" as="geometry" />
          </mxCell>
        </UserObject>
        <mxCell id="05g8EHRjyKozir9RmIMq-63" style="edgeStyle=orthogonalEdgeStyle;rounded=0;orthogonalLoop=1;jettySize=auto;html=1;exitX=0.5;exitY=1;exitDx=0;exitDy=0;entryX=0.5;entryY=0;entryDx=0;entryDy=0;entryPerimeter=0;" edge="1" parent="05g8EHRjyKozir9RmIMq-84" source="05g8EHRjyKozir9RmIMq-61" target="05g8EHRjyKozir9RmIMq-56">
          <mxGeometry relative="1" as="geometry" />
        </mxCell>
        <mxCell id="05g8EHRjyKozir9RmIMq-61" value="&lt;font style=&quot;font-size: 12px;&quot;&gt;setup trigger pin direction as output&lt;/font&gt;" style="whiteSpace=wrap;html=1;fontSize=16;fillColor=#d5e8d4;strokeColor=#82b366;rounded=0;" vertex="1" parent="05g8EHRjyKozir9RmIMq-84">
          <mxGeometry y="326" width="128.25" height="60" as="geometry" />
        </mxCell>
        <mxCell id="05g8EHRjyKozir9RmIMq-62" value="" style="edgeStyle=orthogonalEdgeStyle;rounded=0;orthogonalLoop=1;jettySize=auto;html=1;" edge="1" parent="05g8EHRjyKozir9RmIMq-84" source="05g8EHRjyKozir9RmIMq-22" target="05g8EHRjyKozir9RmIMq-61">
          <mxGeometry relative="1" as="geometry" />
        </mxCell>
        <mxCell id="05g8EHRjyKozir9RmIMq-86" value="" style="group" vertex="1" connectable="0" parent="1">
          <mxGeometry x="-1190" y="-1045.25" width="380" height="639" as="geometry" />
        </mxCell>
        <UserObject label="&lt;div style=&quot;font-size: 1px&quot;&gt;&lt;font style=&quot;font-size: 11.29px; direction: ltr; letter-spacing: 0px; line-height: 120%; opacity: 1;&quot;&gt;start&lt;/font&gt;&lt;/div&gt;" Function="EN_DIO_Error_T DIO_init(uint8_t pinNumber, EN_DIO_PORT_T portNumber, EN_DIO_DIRECTION_T direction);" tags="Flowchart" id="05g8EHRjyKozir9RmIMq-65">
          <mxCell style="verticalAlign=middle;align=center;overflow=width;vsdxID=30;fillColor=#dae8fc;shape=stencil(tVLREoIgEPwaHnEQxsl3s/9gEpSJwDko7e+DsEkze2l627vdu5uFRaxyHe8FosR5sCcxqMZ3iO0Rpcp0ApQPCLEasUpaEC3Yi2lS3fOojOhsr3HDmObyMtsVcYqS29Qh5FEfklwrM5OXeUa/yjkcAwfr7TDpiyTfXvjkMR+Vw2A998qaBac5tAKHU1hq3i4oNwjRr9ofvayt/+Rk+yX/4iWA159KpXWKxJx/z0Bopfyw+g4=);strokeColor=#6c8ebf;spacingTop=-1;spacingBottom=-1;spacingLeft=-1;spacingRight=-1;points=[[0.5,1,0],[0.5,0,0],[0,0.5,0],[1,0.5,0]];labelBackgroundColor=none;rounded=1;html=1;whiteSpace=wrap;fontFamily=Calibri;" vertex="1" parent="05g8EHRjyKozir9RmIMq-86">
            <mxGeometry x="39.5" y="48" width="101" height="38" as="geometry" />
          </mxCell>
        </UserObject>
        <mxCell id="05g8EHRjyKozir9RmIMq-66" value="Ultrasonic_readDistance" style="text;html=1;strokeColor=#666666;fillColor=#f5f5f5;align=center;verticalAlign=middle;whiteSpace=wrap;rounded=0;fontColor=#333333;" vertex="1" parent="05g8EHRjyKozir9RmIMq-86">
          <mxGeometry x="20" width="140" height="30" as="geometry" />
        </mxCell>
        <UserObject label="" Function="EN_DIO_Error_T DIO_init(uint8_t pinNumber, EN_DIO_PORT_T portNumber, EN_DIO_DIRECTION_T direction);" tags="Flowchart" id="05g8EHRjyKozir9RmIMq-68">
          <mxCell style="vsdxID=219;fillColor=#fff2cc;shape=stencil(UzV2Ls5ILEhVNTIoLinKz04tz0wpyVA1dlE1MsrMy0gtyiwBslSNXVWNndPyi1LTi/JL81Ig/IJEkEoQKze/DGRCBUSfAUiHkUElhGcK4bpBVOZk5iGpNEVVikeloQHZpsK0YlWLz1QgA+HFtMycHEgIIcujBwlQCBKcxq4A);strokeColor=#d6b656;spacingTop=-1;spacingBottom=-1;spacingLeft=-1;spacingRight=-1;points=[[0,0.5,0],[1,0.5,0],[0.5,0,0],[0.5,1,0]];labelBackgroundColor=none;rounded=1;html=1;whiteSpace=wrap;fontFamily=Calibri;" vertex="1" parent="05g8EHRjyKozir9RmIMq-86">
            <mxGeometry x="9.75" y="213" width="160.5" height="100" as="geometry" />
          </mxCell>
        </UserObject>
        <mxCell id="05g8EHRjyKozir9RmIMq-69" value="&lt;div style=&quot;&quot;&gt;&lt;font style=&quot;font-size: 12px;&quot;&gt;while(u8_g_edgeCount != 2)&lt;/font&gt;&lt;/div&gt;" style="text;vsdxID=219;fillColor=none;gradientColor=none;strokeColor=none;spacingTop=-1;spacingBottom=-1;spacingLeft=-1;spacingRight=-1;points=[[0,0.5,0],[1,0.5,0],[0.5,0,0],[0.5,1,0]];labelBackgroundColor=none;rounded=1;html=1;whiteSpace=wrap;verticalAlign=middle;align=center;overflow=width;;html=1;fontColor=#000000;fontFamily=Calibri;" vertex="1" parent="05g8EHRjyKozir9RmIMq-68">
          <mxGeometry x="5.6686250000000005" y="23.246315789473684" width="149.17137499999998" height="53.51315789473685" as="geometry" />
        </mxCell>
        <mxCell id="05g8EHRjyKozir9RmIMq-73" value="false" style="edgeStyle=orthogonalEdgeStyle;rounded=0;orthogonalLoop=1;jettySize=auto;html=1;exitX=0.5;exitY=1;exitDx=0;exitDy=0;exitPerimeter=0;" edge="1" parent="05g8EHRjyKozir9RmIMq-86" source="05g8EHRjyKozir9RmIMq-68">
          <mxGeometry relative="1" as="geometry">
            <mxPoint y="263" as="targetPoint" />
          </mxGeometry>
        </mxCell>
        <UserObject label="" Function="EN_DIO_Error_T DIO_init(uint8_t pinNumber, EN_DIO_PORT_T portNumber, EN_DIO_DIRECTION_T direction);" tags="Flowchart" id="05g8EHRjyKozir9RmIMq-74">
          <mxCell style="vsdxID=280;fillColor=#e1d5e7;shape=stencil(UzV2Ls5ILEhVNTIoLinKz04tz0wpyVA1dlE1MsrMy0gtyiwBslSNXVWNndPyi1LTi/JL81Ig/IJEkEoQKze/DGRCBUSfrqGJnoEZSJuRQSVEyNDAAMx3g6jPycxDUm9hqmdpQrxyQ0zj8akmRTFhlwMZCG+nZebkQEINWR49mIBCkCA2dgUA);strokeColor=#9673a6;spacingTop=-1;spacingBottom=-1;spacingLeft=-1;spacingRight=-1;points=[[0,0.5,0],[1,0.5,0],[0.5,1,0],[0.5,0,0]];labelBackgroundColor=none;rounded=1;html=1;whiteSpace=wrap;fontFamily=Calibri;" vertex="1" parent="05g8EHRjyKozir9RmIMq-86">
            <mxGeometry x="39.5" y="132" width="101" height="38" as="geometry" />
          </mxCell>
        </UserObject>
        <mxCell id="05g8EHRjyKozir9RmIMq-75" value="&lt;div style=&quot;&quot;&gt;send trigger signal&amp;nbsp;&lt;br&gt;&lt;/div&gt;" style="text;vsdxID=280;fillColor=none;gradientColor=none;strokeColor=none;spacingTop=-1;spacingBottom=-1;spacingLeft=-1;spacingRight=-1;points=[[0,0.5,0],[1,0.5,0],[0.5,1,0],[0.5,0,0]];labelBackgroundColor=none;rounded=1;html=1;whiteSpace=wrap;verticalAlign=middle;align=center;overflow=width;;html=1;fontColor=#000000;fontFamily=Calibri;" vertex="1" parent="05g8EHRjyKozir9RmIMq-74">
          <mxGeometry x="16.93" y="-0.09999999999999999" width="67.73" height="38.099999999999994" as="geometry" />
        </mxCell>
        <mxCell id="05g8EHRjyKozir9RmIMq-79" style="edgeStyle=orthogonalEdgeStyle;rounded=0;orthogonalLoop=1;jettySize=auto;html=1;exitX=0.5;exitY=1;exitDx=0;exitDy=0;exitPerimeter=0;entryX=0.5;entryY=0;entryDx=0;entryDy=0;entryPerimeter=0;" edge="1" parent="05g8EHRjyKozir9RmIMq-86" source="05g8EHRjyKozir9RmIMq-65" target="05g8EHRjyKozir9RmIMq-75">
          <mxGeometry relative="1" as="geometry" />
        </mxCell>
        <mxCell id="05g8EHRjyKozir9RmIMq-76" value="&lt;font style=&quot;font-size: 12px;&quot;&gt;calculate the distance=&lt;br&gt;u16_g_timeHigh/58&lt;/font&gt;" style="rounded=0;whiteSpace=wrap;html=1;fontSize=16;fillColor=#d5e8d4;strokeColor=#82b366;" vertex="1" parent="05g8EHRjyKozir9RmIMq-86">
          <mxGeometry x="39.5" y="392.5" width="110" height="60.5" as="geometry" />
        </mxCell>
        <mxCell id="05g8EHRjyKozir9RmIMq-77" value="true" style="edgeStyle=orthogonalEdgeStyle;rounded=0;orthogonalLoop=1;jettySize=auto;html=1;exitX=1;exitY=0.5;exitDx=0;exitDy=0;exitPerimeter=0;" edge="1" parent="05g8EHRjyKozir9RmIMq-86" source="05g8EHRjyKozir9RmIMq-68" target="05g8EHRjyKozir9RmIMq-76">
          <mxGeometry relative="1" as="geometry" />
        </mxCell>
        <mxCell id="05g8EHRjyKozir9RmIMq-78" style="edgeStyle=orthogonalEdgeStyle;rounded=0;orthogonalLoop=1;jettySize=auto;html=1;exitX=0.5;exitY=1;exitDx=0;exitDy=0;exitPerimeter=0;entryX=0.5;entryY=0;entryDx=0;entryDy=0;entryPerimeter=0;" edge="1" parent="05g8EHRjyKozir9RmIMq-86" source="05g8EHRjyKozir9RmIMq-75" target="05g8EHRjyKozir9RmIMq-68">
          <mxGeometry relative="1" as="geometry" />
        </mxCell>
        <mxCell id="05g8EHRjyKozir9RmIMq-80" value="&lt;font style=&quot;font-size: 12px;&quot;&gt;clear edge count to be ready for new read&lt;br&gt;&lt;span style=&quot;&quot;&gt;u8_g_edgeCount=0&lt;/span&gt;&lt;br&gt;&lt;/font&gt;" style="rounded=0;whiteSpace=wrap;html=1;fontSize=16;fillColor=#d5e8d4;strokeColor=#82b366;" vertex="1" parent="05g8EHRjyKozir9RmIMq-86">
          <mxGeometry x="34.25" y="486" width="120.5" height="80" as="geometry" />
        </mxCell>
        <mxCell id="05g8EHRjyKozir9RmIMq-81" value="" style="edgeStyle=orthogonalEdgeStyle;rounded=0;orthogonalLoop=1;jettySize=auto;html=1;" edge="1" parent="05g8EHRjyKozir9RmIMq-86" source="05g8EHRjyKozir9RmIMq-76" target="05g8EHRjyKozir9RmIMq-80">
          <mxGeometry relative="1" as="geometry" />
        </mxCell>
        <UserObject label="&lt;div style=&quot;font-size: 1px&quot;&gt;&lt;font style=&quot;font-size: 11.29px; direction: ltr; letter-spacing: 0px; line-height: 120%; opacity: 1;&quot;&gt;end&lt;/font&gt;&lt;/div&gt;" Function="EN_DIO_Error_T DIO_init(uint8_t pinNumber, EN_DIO_PORT_T portNumber, EN_DIO_DIRECTION_T direction);" tags="Flowchart" id="05g8EHRjyKozir9RmIMq-82">
          <mxCell style="verticalAlign=middle;align=center;overflow=width;vsdxID=30;fillColor=#dae8fc;shape=stencil(tVLREoIgEPwaHnEQxsl3s/9gEpSJwDko7e+DsEkze2l627vdu5uFRaxyHe8FosR5sCcxqMZ3iO0Rpcp0ApQPCLEasUpaEC3Yi2lS3fOojOhsr3HDmObyMtsVcYqS29Qh5FEfklwrM5OXeUa/yjkcAwfr7TDpiyTfXvjkMR+Vw2A998qaBac5tAKHU1hq3i4oNwjRr9ofvayt/+Rk+yX/4iWA159KpXWKxJx/z0Bopfyw+g4=);strokeColor=#6c8ebf;spacingTop=-1;spacingBottom=-1;spacingLeft=-1;spacingRight=-1;points=[[0.5,1,0],[0.5,0,0],[0,0.5,0],[1,0.5,0]];labelBackgroundColor=none;rounded=1;html=1;whiteSpace=wrap;fontFamily=Calibri;" vertex="1" parent="05g8EHRjyKozir9RmIMq-86">
            <mxGeometry x="44.00000000000023" y="601" width="101" height="38" as="geometry" />
          </mxCell>
        </UserObject>
        <mxCell id="05g8EHRjyKozir9RmIMq-83" style="edgeStyle=orthogonalEdgeStyle;rounded=0;orthogonalLoop=1;jettySize=auto;html=1;exitX=0.5;exitY=1;exitDx=0;exitDy=0;entryX=0.5;entryY=0;entryDx=0;entryDy=0;entryPerimeter=0;" edge="1" parent="05g8EHRjyKozir9RmIMq-86" source="05g8EHRjyKozir9RmIMq-80" target="05g8EHRjyKozir9RmIMq-82">
          <mxGeometry relative="1" as="geometry" />
        </mxCell>
        <mxCell id="05g8EHRjyKozir9RmIMq-85" value="&lt;h1&gt;note&lt;/h1&gt;&lt;p&gt;wait until ultrasonic sound to travel towards the object and return.&lt;br&gt;&lt;/p&gt;" style="text;html=1;spacing=5;spacingTop=-20;whiteSpace=wrap;overflow=hidden;rounded=0;" vertex="1" parent="05g8EHRjyKozir9RmIMq-86">
          <mxGeometry x="210" y="157" width="170" height="106" as="geometry" />
        </mxCell>
        <mxCell id="05g8EHRjyKozir9RmIMq-137" value="" style="group" vertex="1" connectable="0" parent="1">
          <mxGeometry x="-1770" y="-1100" width="451.25" height="748.5" as="geometry" />
        </mxCell>
        <mxCell id="05g8EHRjyKozir9RmIMq-136" style="edgeStyle=orthogonalEdgeStyle;rounded=0;orthogonalLoop=1;jettySize=auto;html=1;exitX=0.5;exitY=1;exitDx=0;exitDy=0;exitPerimeter=0;" edge="1" parent="05g8EHRjyKozir9RmIMq-137" source="05g8EHRjyKozir9RmIMq-88">
          <mxGeometry relative="1" as="geometry">
            <mxPoint x="240.78176470588232" y="109.99999999999989" as="targetPoint" />
          </mxGeometry>
        </mxCell>
        <UserObject label="&lt;div style=&quot;font-size: 1px&quot;&gt;&lt;font style=&quot;font-size: 11.29px; direction: ltr; letter-spacing: 0px; line-height: 120%; opacity: 1;&quot;&gt;start&lt;/font&gt;&lt;/div&gt;" Function="EN_DIO_Error_T DIO_init(uint8_t pinNumber, EN_DIO_PORT_T portNumber, EN_DIO_DIRECTION_T direction);" tags="Flowchart" id="05g8EHRjyKozir9RmIMq-88">
          <mxCell style="verticalAlign=middle;align=center;overflow=width;vsdxID=30;fillColor=#dae8fc;shape=stencil(tVLREoIgEPwaHnEQxsl3s/9gEpSJwDko7e+DsEkze2l627vdu5uFRaxyHe8FosR5sCcxqMZ3iO0Rpcp0ApQPCLEasUpaEC3Yi2lS3fOojOhsr3HDmObyMtsVcYqS29Qh5FEfklwrM5OXeUa/yjkcAwfr7TDpiyTfXvjkMR+Vw2A998qaBac5tAKHU1hq3i4oNwjRr9ofvayt/+Rk+yX/4iWA159KpXWKxJx/z0Bopfyw+g4=);strokeColor=#6c8ebf;spacingTop=-1;spacingBottom=-1;spacingLeft=-1;spacingRight=-1;points=[[0.5,1,0],[0.5,0,0],[0,0.5,0],[1,0.5,0]];labelBackgroundColor=none;rounded=1;html=1;whiteSpace=wrap;fontFamily=Calibri;container=0;" vertex="1" parent="05g8EHRjyKozir9RmIMq-137">
            <mxGeometry x="190.24999999999977" y="50" width="101" height="38" as="geometry" />
          </mxCell>
        </UserObject>
        <mxCell id="05g8EHRjyKozir9RmIMq-89" value="Ultrasonic_edgeProcessing" style="text;html=1;strokeColor=#666666;fillColor=#f5f5f5;align=center;verticalAlign=middle;whiteSpace=wrap;rounded=0;fontColor=#333333;container=0;" vertex="1" parent="05g8EHRjyKozir9RmIMq-137">
          <mxGeometry x="160.49999999999977" width="150" height="30" as="geometry" />
        </mxCell>
        <UserObject label="" Function="EN_DIO_Error_T DIO_init(uint8_t pinNumber, EN_DIO_PORT_T portNumber, EN_DIO_DIRECTION_T direction);" tags="Flowchart" id="05g8EHRjyKozir9RmIMq-90">
          <mxCell style="vsdxID=219;fillColor=#fff2cc;shape=stencil(UzV2Ls5ILEhVNTIoLinKz04tz0wpyVA1dlE1MsrMy0gtyiwBslSNXVWNndPyi1LTi/JL81Ig/IJEkEoQKze/DGRCBUSfAUiHkUElhGcK4bpBVOZk5iGpNEVVikeloQHZpsK0YlWLz1QgA+HFtMycHEgIIcujBwlQCBKcxq4A);strokeColor=#d6b656;spacingTop=-1;spacingBottom=-1;spacingLeft=-1;spacingRight=-1;points=[[0,0.5,0],[1,0.5,0],[0.5,0,0],[0.5,1,0]];labelBackgroundColor=none;rounded=1;html=1;whiteSpace=wrap;fontFamily=Calibri;container=0;" vertex="1" parent="05g8EHRjyKozir9RmIMq-137">
            <mxGeometry x="160.5" y="190" width="160.5" height="100" as="geometry" />
          </mxCell>
        </UserObject>
        <UserObject label="&lt;div style=&quot;font-size: 1px&quot;&gt;&lt;font style=&quot;font-size: 11.29px; direction: ltr; letter-spacing: 0px; line-height: 120%; opacity: 1;&quot;&gt;end&lt;/font&gt;&lt;/div&gt;" Function="EN_DIO_Error_T DIO_init(uint8_t pinNumber, EN_DIO_PORT_T portNumber, EN_DIO_DIRECTION_T direction);" tags="Flowchart" id="05g8EHRjyKozir9RmIMq-101">
          <mxCell style="verticalAlign=middle;align=center;overflow=width;vsdxID=30;fillColor=#dae8fc;shape=stencil(tVLREoIgEPwaHnEQxsl3s/9gEpSJwDko7e+DsEkze2l627vdu5uFRaxyHe8FosR5sCcxqMZ3iO0Rpcp0ApQPCLEasUpaEC3Yi2lS3fOojOhsr3HDmObyMtsVcYqS29Qh5FEfklwrM5OXeUa/yjkcAwfr7TDpiyTfXvjkMR+Vw2A998qaBac5tAKHU1hq3i4oNwjRr9ofvayt/+Rk+yX/4iWA159KpXWKxJx/z0Bopfyw+g4=);strokeColor=#6c8ebf;spacingTop=-1;spacingBottom=-1;spacingLeft=-1;spacingRight=-1;points=[[0.5,1,0],[0.5,0,0],[0,0.5,0],[1,0.5,0]];labelBackgroundColor=none;rounded=1;html=1;whiteSpace=wrap;fontFamily=Calibri;container=0;" vertex="1" parent="05g8EHRjyKozir9RmIMq-137">
            <mxGeometry x="175.59000000000015" y="710.5" width="101" height="38" as="geometry" />
          </mxCell>
        </UserObject>
        <mxCell id="05g8EHRjyKozir9RmIMq-91" value="&lt;div style=&quot;&quot;&gt;if(u8_g_edgeCount==1)&lt;span style=&quot;&quot;&gt;&lt;/span&gt;&lt;br&gt;&lt;/div&gt;" style="text;vsdxID=219;fillColor=none;gradientColor=none;strokeColor=none;spacingTop=-1;spacingBottom=-1;spacingLeft=-1;spacingRight=-1;points=[[0,0.5,0],[1,0.5,0],[0.5,0,0],[0.5,1,0]];labelBackgroundColor=none;rounded=1;html=1;whiteSpace=wrap;verticalAlign=middle;align=center;overflow=width;;html=1;fontColor=#000000;fontFamily=Calibri;container=0;" vertex="1" parent="05g8EHRjyKozir9RmIMq-137">
          <mxGeometry x="166.1686249999998" y="213.24631578947367" width="149.17137499999998" height="53.51315789473685" as="geometry" />
        </mxCell>
        <mxCell id="05g8EHRjyKozir9RmIMq-135" style="edgeStyle=orthogonalEdgeStyle;rounded=0;orthogonalLoop=1;jettySize=auto;html=1;exitX=0.5;exitY=1;exitDx=0;exitDy=0;entryX=0.5;entryY=0;entryDx=0;entryDy=0;entryPerimeter=0;" edge="1" parent="05g8EHRjyKozir9RmIMq-137" source="05g8EHRjyKozir9RmIMq-105" target="05g8EHRjyKozir9RmIMq-90">
          <mxGeometry relative="1" as="geometry" />
        </mxCell>
        <mxCell id="05g8EHRjyKozir9RmIMq-105" value="&lt;font style=&quot;font-size: 12px;&quot;&gt;u8_g_edgeCount++&lt;/font&gt;" style="rounded=0;whiteSpace=wrap;html=1;fontSize=16;fillColor=#d5e8d4;strokeColor=#82b366;container=0;" vertex="1" parent="05g8EHRjyKozir9RmIMq-137">
          <mxGeometry x="180.49999999999977" y="111" width="120.5" height="44" as="geometry" />
        </mxCell>
        <mxCell id="05g8EHRjyKozir9RmIMq-106" value="&lt;font style=&quot;font-size: 12px;&quot;&gt;clear timer value&lt;/font&gt;" style="rounded=0;whiteSpace=wrap;html=1;fontSize=16;fillColor=#d5e8d4;strokeColor=#82b366;container=0;" vertex="1" parent="05g8EHRjyKozir9RmIMq-137">
          <mxGeometry x="330.75" y="313.5" width="120.5" height="44" as="geometry" />
        </mxCell>
        <mxCell id="05g8EHRjyKozir9RmIMq-118" value="true" style="edgeStyle=orthogonalEdgeStyle;rounded=0;orthogonalLoop=1;jettySize=auto;html=1;exitX=1;exitY=0.5;exitDx=0;exitDy=0;exitPerimeter=0;entryX=0.5;entryY=0;entryDx=0;entryDy=0;" edge="1" parent="05g8EHRjyKozir9RmIMq-137" source="05g8EHRjyKozir9RmIMq-91" target="05g8EHRjyKozir9RmIMq-106">
          <mxGeometry relative="1" as="geometry" />
        </mxCell>
        <mxCell id="05g8EHRjyKozir9RmIMq-134" style="edgeStyle=orthogonalEdgeStyle;rounded=0;orthogonalLoop=1;jettySize=auto;html=1;exitX=0.5;exitY=1;exitDx=0;exitDy=0;entryX=1;entryY=0.5;entryDx=0;entryDy=0;entryPerimeter=0;" edge="1" parent="05g8EHRjyKozir9RmIMq-137" source="05g8EHRjyKozir9RmIMq-119" target="05g8EHRjyKozir9RmIMq-101">
          <mxGeometry relative="1" as="geometry" />
        </mxCell>
        <mxCell id="05g8EHRjyKozir9RmIMq-119" value="&lt;font style=&quot;font-size: 12px;&quot;&gt;set edge detection to falling&lt;/font&gt;" style="rounded=0;whiteSpace=wrap;html=1;fontSize=16;fillColor=#d5e8d4;strokeColor=#82b366;container=0;" vertex="1" parent="05g8EHRjyKozir9RmIMq-137">
          <mxGeometry x="330.75" y="383" width="120.5" height="44" as="geometry" />
        </mxCell>
        <mxCell id="05g8EHRjyKozir9RmIMq-120" value="" style="edgeStyle=orthogonalEdgeStyle;rounded=0;orthogonalLoop=1;jettySize=auto;html=1;" edge="1" parent="05g8EHRjyKozir9RmIMq-137" source="05g8EHRjyKozir9RmIMq-106" target="05g8EHRjyKozir9RmIMq-119">
          <mxGeometry relative="1" as="geometry" />
        </mxCell>
        <mxCell id="05g8EHRjyKozir9RmIMq-133" value="false" style="edgeStyle=orthogonalEdgeStyle;rounded=0;orthogonalLoop=1;jettySize=auto;html=1;exitX=0;exitY=0.5;exitDx=0;exitDy=0;exitPerimeter=0;entryX=0;entryY=0.5;entryDx=0;entryDy=0;entryPerimeter=0;" edge="1" parent="05g8EHRjyKozir9RmIMq-137" source="05g8EHRjyKozir9RmIMq-123" target="05g8EHRjyKozir9RmIMq-101">
          <mxGeometry relative="1" as="geometry" />
        </mxCell>
        <UserObject label="if(u8_g_edgeCount==2)" Function="EN_DIO_Error_T DIO_init(uint8_t pinNumber, EN_DIO_PORT_T portNumber, EN_DIO_DIRECTION_T direction);" tags="Flowchart" id="05g8EHRjyKozir9RmIMq-123">
          <mxCell style="vsdxID=219;fillColor=#fff2cc;shape=stencil(UzV2Ls5ILEhVNTIoLinKz04tz0wpyVA1dlE1MsrMy0gtyiwBslSNXVWNndPyi1LTi/JL81Ig/IJEkEoQKze/DGRCBUSfAUiHkUElhGcK4bpBVOZk5iGpNEVVikeloQHZpsK0YlWLz1QgA+HFtMycHEgIIcujBwlQCBKcxq4A);strokeColor=#d6b656;spacingTop=-1;spacingBottom=-1;spacingLeft=-1;spacingRight=-1;points=[[0,0.5,0],[1,0.5,0],[0.5,0,0],[0.5,1,0]];labelBackgroundColor=none;rounded=1;html=1;whiteSpace=wrap;fontFamily=Calibri;container=0;" vertex="1" parent="05g8EHRjyKozir9RmIMq-137">
            <mxGeometry y="290" width="160.5" height="100" as="geometry" />
          </mxCell>
        </UserObject>
        <mxCell id="05g8EHRjyKozir9RmIMq-124" value="false" style="edgeStyle=orthogonalEdgeStyle;rounded=0;orthogonalLoop=1;jettySize=auto;html=1;exitX=0;exitY=0.5;exitDx=0;exitDy=0;exitPerimeter=0;entryX=0.5;entryY=0;entryDx=0;entryDy=0;entryPerimeter=0;" edge="1" parent="05g8EHRjyKozir9RmIMq-137" source="05g8EHRjyKozir9RmIMq-91" target="05g8EHRjyKozir9RmIMq-123">
          <mxGeometry relative="1" as="geometry" />
        </mxCell>
        <mxCell id="05g8EHRjyKozir9RmIMq-125" value="&lt;span style=&quot;font-size: 12px;&quot;&gt;read timer value&lt;/span&gt;" style="rounded=0;whiteSpace=wrap;html=1;fontSize=16;fillColor=#d5e8d4;strokeColor=#82b366;container=0;" vertex="1" parent="05g8EHRjyKozir9RmIMq-137">
          <mxGeometry x="25.58999999999969" y="427" width="110" height="43.5" as="geometry" />
        </mxCell>
        <mxCell id="05g8EHRjyKozir9RmIMq-131" value="true" style="edgeStyle=orthogonalEdgeStyle;rounded=0;orthogonalLoop=1;jettySize=auto;html=1;exitX=0.5;exitY=1;exitDx=0;exitDy=0;exitPerimeter=0;entryX=0.5;entryY=0;entryDx=0;entryDy=0;" edge="1" parent="05g8EHRjyKozir9RmIMq-137" source="05g8EHRjyKozir9RmIMq-123" target="05g8EHRjyKozir9RmIMq-125">
          <mxGeometry relative="1" as="geometry" />
        </mxCell>
        <mxCell id="05g8EHRjyKozir9RmIMq-126" value="&lt;span style=&quot;font-size: 12px;&quot;&gt;clear the timer&lt;/span&gt;" style="rounded=0;whiteSpace=wrap;html=1;fontSize=16;fillColor=#d5e8d4;strokeColor=#82b366;container=0;" vertex="1" parent="05g8EHRjyKozir9RmIMq-137">
          <mxGeometry x="25.58999999999969" y="501" width="110" height="40" as="geometry" />
        </mxCell>
        <mxCell id="05g8EHRjyKozir9RmIMq-127" value="" style="edgeStyle=orthogonalEdgeStyle;rounded=0;orthogonalLoop=1;jettySize=auto;html=1;" edge="1" parent="05g8EHRjyKozir9RmIMq-137" source="05g8EHRjyKozir9RmIMq-125" target="05g8EHRjyKozir9RmIMq-126">
          <mxGeometry relative="1" as="geometry" />
        </mxCell>
        <mxCell id="05g8EHRjyKozir9RmIMq-132" style="edgeStyle=orthogonalEdgeStyle;rounded=0;orthogonalLoop=1;jettySize=auto;html=1;exitX=0.5;exitY=1;exitDx=0;exitDy=0;entryX=0.5;entryY=0;entryDx=0;entryDy=0;entryPerimeter=0;" edge="1" parent="05g8EHRjyKozir9RmIMq-137" source="05g8EHRjyKozir9RmIMq-128" target="05g8EHRjyKozir9RmIMq-101">
          <mxGeometry relative="1" as="geometry" />
        </mxCell>
        <mxCell id="05g8EHRjyKozir9RmIMq-128" value="&lt;span style=&quot;font-size: 12px;&quot;&gt;set edge detection to rising&lt;/span&gt;" style="rounded=0;whiteSpace=wrap;html=1;fontSize=16;fillColor=#d5e8d4;strokeColor=#82b366;container=0;" vertex="1" parent="05g8EHRjyKozir9RmIMq-137">
          <mxGeometry x="25.58999999999969" y="573" width="110" height="52" as="geometry" />
        </mxCell>
        <mxCell id="05g8EHRjyKozir9RmIMq-129" value="" style="edgeStyle=orthogonalEdgeStyle;rounded=0;orthogonalLoop=1;jettySize=auto;html=1;" edge="1" parent="05g8EHRjyKozir9RmIMq-137" source="05g8EHRjyKozir9RmIMq-126" target="05g8EHRjyKozir9RmIMq-128">
          <mxGeometry relative="1" as="geometry" />
        </mxCell>
        <mxCell id="05g8EHRjyKozir9RmIMq-178" value="" style="group" vertex="1" connectable="0" parent="1">
          <mxGeometry x="-680" y="-1080.5" width="140" height="407.5" as="geometry" />
        </mxCell>
        <UserObject label="&lt;div style=&quot;font-size: 1px&quot;&gt;&lt;font style=&quot;font-size: 11.29px; direction: ltr; letter-spacing: 0px; line-height: 120%; opacity: 1;&quot;&gt;start&lt;/font&gt;&lt;/div&gt;" Function="EN_DIO_Error_T DIO_init(uint8_t pinNumber, EN_DIO_PORT_T portNumber, EN_DIO_DIRECTION_T direction);" tags="Flowchart" id="05g8EHRjyKozir9RmIMq-156">
          <mxCell style="verticalAlign=middle;align=center;overflow=width;vsdxID=30;fillColor=#dae8fc;shape=stencil(tVLREoIgEPwaHnEQxsl3s/9gEpSJwDko7e+DsEkze2l627vdu5uFRaxyHe8FosR5sCcxqMZ3iO0Rpcp0ApQPCLEasUpaEC3Yi2lS3fOojOhsr3HDmObyMtsVcYqS29Qh5FEfklwrM5OXeUa/yjkcAwfr7TDpiyTfXvjkMR+Vw2A998qaBac5tAKHU1hq3i4oNwjRr9ofvayt/+Rk+yX/4iWA159KpXWKxJx/z0Bopfyw+g4=);strokeColor=#6c8ebf;spacingTop=-1;spacingBottom=-1;spacingLeft=-1;spacingRight=-1;points=[[0.5,1,0],[0.5,0,0],[0,0.5,0],[1,0.5,0]];labelBackgroundColor=none;rounded=1;html=1;whiteSpace=wrap;fontFamily=Calibri;" vertex="1" parent="05g8EHRjyKozir9RmIMq-178">
            <mxGeometry x="19.5" y="48" width="101" height="38" as="geometry" />
          </mxCell>
        </UserObject>
        <mxCell id="05g8EHRjyKozir9RmIMq-157" value="Ultrasonic_Trigger" style="text;html=1;strokeColor=#666666;fillColor=#f5f5f5;align=center;verticalAlign=middle;whiteSpace=wrap;rounded=0;fontColor=#333333;" vertex="1" parent="05g8EHRjyKozir9RmIMq-178">
          <mxGeometry width="140" height="30" as="geometry" />
        </mxCell>
        <UserObject label="" Function="EN_DIO_Error_T DIO_init(uint8_t pinNumber, EN_DIO_PORT_T portNumber, EN_DIO_DIRECTION_T direction);" tags="Flowchart" id="05g8EHRjyKozir9RmIMq-161">
          <mxCell style="vsdxID=280;fillColor=#e1d5e7;shape=stencil(UzV2Ls5ILEhVNTIoLinKz04tz0wpyVA1dlE1MsrMy0gtyiwBslSNXVWNndPyi1LTi/JL81Ig/IJEkEoQKze/DGRCBUSfrqGJnoEZSJuRQSVEyNDAAMx3g6jPycxDUm9hqmdpQrxyQ0zj8akmRTFhlwMZCG+nZebkQEINWR49mIBCkCA2dgUA);strokeColor=#9673a6;spacingTop=-1;spacingBottom=-1;spacingLeft=-1;spacingRight=-1;points=[[0,0.5,0],[1,0.5,0],[0.5,1,0],[0.5,0,0]];labelBackgroundColor=none;rounded=1;html=1;whiteSpace=wrap;fontFamily=Calibri;" vertex="1" parent="05g8EHRjyKozir9RmIMq-178">
            <mxGeometry x="19.5" y="132" width="101" height="38" as="geometry" />
          </mxCell>
        </UserObject>
        <mxCell id="05g8EHRjyKozir9RmIMq-162" value="&lt;div style=&quot;&quot;&gt;send low signal&lt;br&gt;&lt;/div&gt;" style="text;vsdxID=280;fillColor=none;gradientColor=none;strokeColor=none;spacingTop=-1;spacingBottom=-1;spacingLeft=-1;spacingRight=-1;points=[[0,0.5,0],[1,0.5,0],[0.5,1,0],[0.5,0,0]];labelBackgroundColor=none;rounded=1;html=1;whiteSpace=wrap;verticalAlign=middle;align=center;overflow=width;;html=1;fontColor=#000000;fontFamily=Calibri;" vertex="1" parent="05g8EHRjyKozir9RmIMq-161">
          <mxGeometry x="16.93" y="-0.09999999999999999" width="67.73" height="38.099999999999994" as="geometry" />
        </mxCell>
        <mxCell id="05g8EHRjyKozir9RmIMq-163" style="edgeStyle=orthogonalEdgeStyle;rounded=0;orthogonalLoop=1;jettySize=auto;html=1;exitX=0.5;exitY=1;exitDx=0;exitDy=0;exitPerimeter=0;entryX=0.5;entryY=0;entryDx=0;entryDy=0;entryPerimeter=0;" edge="1" parent="05g8EHRjyKozir9RmIMq-178" source="05g8EHRjyKozir9RmIMq-156" target="05g8EHRjyKozir9RmIMq-162">
          <mxGeometry relative="1" as="geometry" />
        </mxCell>
        <UserObject label="&lt;div style=&quot;font-size: 1px&quot;&gt;&lt;font style=&quot;font-size: 11.29px; direction: ltr; letter-spacing: 0px; line-height: 120%; opacity: 1;&quot;&gt;end&lt;/font&gt;&lt;/div&gt;" Function="EN_DIO_Error_T DIO_init(uint8_t pinNumber, EN_DIO_PORT_T portNumber, EN_DIO_DIRECTION_T direction);" tags="Flowchart" id="05g8EHRjyKozir9RmIMq-169">
          <mxCell style="verticalAlign=middle;align=center;overflow=width;vsdxID=30;fillColor=#dae8fc;shape=stencil(tVLREoIgEPwaHnEQxsl3s/9gEpSJwDko7e+DsEkze2l627vdu5uFRaxyHe8FosR5sCcxqMZ3iO0Rpcp0ApQPCLEasUpaEC3Yi2lS3fOojOhsr3HDmObyMtsVcYqS29Qh5FEfklwrM5OXeUa/yjkcAwfr7TDpiyTfXvjkMR+Vw2A998qaBac5tAKHU1hq3i4oNwjRr9ofvayt/+Rk+yX/4iWA159KpXWKxJx/z0Bopfyw+g4=);strokeColor=#6c8ebf;spacingTop=-1;spacingBottom=-1;spacingLeft=-1;spacingRight=-1;points=[[0.5,1,0],[0.5,0,0],[0,0.5,0],[1,0.5,0]];labelBackgroundColor=none;rounded=1;html=1;whiteSpace=wrap;fontFamily=Calibri;" vertex="1" parent="05g8EHRjyKozir9RmIMq-178">
            <mxGeometry x="19.79000000000019" y="369.5" width="101" height="38" as="geometry" />
          </mxCell>
        </UserObject>
        <mxCell id="05g8EHRjyKozir9RmIMq-170" style="edgeStyle=orthogonalEdgeStyle;rounded=0;orthogonalLoop=1;jettySize=auto;html=1;exitX=0.5;exitY=1;exitDx=0;exitDy=0;entryX=0.5;entryY=0;entryDx=0;entryDy=0;entryPerimeter=0;" edge="1" parent="05g8EHRjyKozir9RmIMq-178" target="05g8EHRjyKozir9RmIMq-169">
          <mxGeometry relative="1" as="geometry">
            <mxPoint x="70.28999999999996" y="334.5" as="sourcePoint" />
          </mxGeometry>
        </mxCell>
        <UserObject label="" Function="EN_DIO_Error_T DIO_init(uint8_t pinNumber, EN_DIO_PORT_T portNumber, EN_DIO_DIRECTION_T direction);" tags="Flowchart" id="05g8EHRjyKozir9RmIMq-172">
          <mxCell style="vsdxID=280;fillColor=#e1d5e7;shape=stencil(UzV2Ls5ILEhVNTIoLinKz04tz0wpyVA1dlE1MsrMy0gtyiwBslSNXVWNndPyi1LTi/JL81Ig/IJEkEoQKze/DGRCBUSfrqGJnoEZSJuRQSVEyNDAAMx3g6jPycxDUm9hqmdpQrxyQ0zj8akmRTFhlwMZCG+nZebkQEINWR49mIBCkCA2dgUA);strokeColor=#9673a6;spacingTop=-1;spacingBottom=-1;spacingLeft=-1;spacingRight=-1;points=[[0,0.5,0],[1,0.5,0],[0.5,1,0],[0.5,0,0]];labelBackgroundColor=none;rounded=1;html=1;whiteSpace=wrap;fontFamily=Calibri;" vertex="1" parent="05g8EHRjyKozir9RmIMq-178">
            <mxGeometry x="19.789999999999964" y="285.76" width="101" height="38" as="geometry" />
          </mxCell>
        </UserObject>
        <mxCell id="05g8EHRjyKozir9RmIMq-173" value="&lt;div style=&quot;&quot;&gt;send High signal&lt;br&gt;&lt;/div&gt;" style="text;vsdxID=280;fillColor=none;gradientColor=none;strokeColor=none;spacingTop=-1;spacingBottom=-1;spacingLeft=-1;spacingRight=-1;points=[[0,0.5,0],[1,0.5,0],[0.5,1,0],[0.5,0,0]];labelBackgroundColor=none;rounded=1;html=1;whiteSpace=wrap;verticalAlign=middle;align=center;overflow=width;;html=1;fontColor=#000000;fontFamily=Calibri;" vertex="1" parent="05g8EHRjyKozir9RmIMq-172">
          <mxGeometry x="16.93" y="-0.09999999999999999" width="67.73" height="38.099999999999994" as="geometry" />
        </mxCell>
        <mxCell id="05g8EHRjyKozir9RmIMq-176" style="edgeStyle=orthogonalEdgeStyle;rounded=0;orthogonalLoop=1;jettySize=auto;html=1;exitX=0.5;exitY=1;exitDx=0;exitDy=0;entryX=0.5;entryY=0;entryDx=0;entryDy=0;entryPerimeter=0;" edge="1" parent="05g8EHRjyKozir9RmIMq-178" source="05g8EHRjyKozir9RmIMq-174" target="05g8EHRjyKozir9RmIMq-173">
          <mxGeometry relative="1" as="geometry" />
        </mxCell>
        <mxCell id="05g8EHRjyKozir9RmIMq-174" value="&lt;span style=&quot;font-size: 12px;&quot;&gt;delay_ms(50)&lt;/span&gt;" style="rounded=0;whiteSpace=wrap;html=1;fontSize=16;fillColor=#d5e8d4;strokeColor=#82b366;container=0;" vertex="1" parent="05g8EHRjyKozir9RmIMq-178">
          <mxGeometry x="10.039999999999964" y="209" width="120.5" height="44" as="geometry" />
        </mxCell>
        <mxCell id="05g8EHRjyKozir9RmIMq-175" style="edgeStyle=orthogonalEdgeStyle;rounded=0;orthogonalLoop=1;jettySize=auto;html=1;exitX=0.5;exitY=1;exitDx=0;exitDy=0;exitPerimeter=0;entryX=0.5;entryY=0;entryDx=0;entryDy=0;" edge="1" parent="05g8EHRjyKozir9RmIMq-178" source="05g8EHRjyKozir9RmIMq-162" target="05g8EHRjyKozir9RmIMq-174">
          <mxGeometry relative="1" as="geometry" />
        </mxCell>
        <mxCell id="05g8EHRjyKozir9RmIMq-177" style="edgeStyle=orthogonalEdgeStyle;rounded=0;orthogonalLoop=1;jettySize=auto;html=1;exitX=0.5;exitY=1;exitDx=0;exitDy=0;exitPerimeter=0;entryX=0.5;entryY=0;entryDx=0;entryDy=0;entryPerimeter=0;" edge="1" parent="05g8EHRjyKozir9RmIMq-178" source="05g8EHRjyKozir9RmIMq-173" target="05g8EHRjyKozir9RmIMq-169">
          <mxGeometry relative="1" as="geometry" />
        </mxCell>
        <UserObject label="&lt;div style=&quot;font-size: 1px&quot;&gt;&lt;font style=&quot;font-size: 11.29px; direction: ltr; letter-spacing: 0px; line-height: 120%; opacity: 1;&quot;&gt;start&lt;/font&gt;&lt;/div&gt;" Function="EN_DIO_Error_T DIO_init(uint8_t pinNumber, EN_DIO_PORT_T portNumber, EN_DIO_DIRECTION_T direction);" tags="Flowchart" id="05g8EHRjyKozir9RmIMq-181">
          <mxCell style="verticalAlign=middle;align=center;overflow=width;vsdxID=30;fillColor=#dae8fc;shape=stencil(tVLREoIgEPwaHnEQxsl3s/9gEpSJwDko7e+DsEkze2l627vdu5uFRaxyHe8FosR5sCcxqMZ3iO0Rpcp0ApQPCLEasUpaEC3Yi2lS3fOojOhsr3HDmObyMtsVcYqS29Qh5FEfklwrM5OXeUa/yjkcAwfr7TDpiyTfXvjkMR+Vw2A998qaBac5tAKHU1hq3i4oNwjRr9ofvayt/+Rk+yX/4iWA159KpXWKxJx/z0Bopfyw+g4=);strokeColor=#6c8ebf;spacingTop=-1;spacingBottom=-1;spacingLeft=-1;spacingRight=-1;points=[[0.5,1,0],[0.5,0,0],[0,0.5,0],[1,0.5,0]];labelBackgroundColor=none;rounded=1;html=1;whiteSpace=wrap;fontFamily=Calibri;" vertex="1" parent="1">
            <mxGeometry x="-2049.0699999999997" y="-82" width="101" height="38" as="geometry" />
          </mxCell>
        </UserObject>
        <mxCell id="05g8EHRjyKozir9RmIMq-182" value="Icu_init" style="text;html=1;strokeColor=#666666;fillColor=#f5f5f5;align=center;verticalAlign=middle;whiteSpace=wrap;rounded=0;fontColor=#333333;" vertex="1" parent="1">
          <mxGeometry x="-2053.5699999999997" y="-130" width="110" height="30" as="geometry" />
        </mxCell>
        <mxCell id="05g8EHRjyKozir9RmIMq-183" value="&lt;font style=&quot;font-size: 12px;&quot;&gt;set timer clock and timer mode&lt;br&gt;&lt;/font&gt;" style="rounded=0;whiteSpace=wrap;html=1;fontSize=16;fillColor=#d5e8d4;strokeColor=#82b366;" vertex="1" parent="1">
          <mxGeometry x="-2050.31" y="-11" width="108.86" height="64" as="geometry" />
        </mxCell>
        <mxCell id="05g8EHRjyKozir9RmIMq-184" style="edgeStyle=orthogonalEdgeStyle;rounded=0;orthogonalLoop=1;jettySize=auto;html=1;exitX=0.5;exitY=1;exitDx=0;exitDy=0;exitPerimeter=0;entryX=0.5;entryY=0;entryDx=0;entryDy=0;" edge="1" parent="1" source="05g8EHRjyKozir9RmIMq-181" target="05g8EHRjyKozir9RmIMq-183">
          <mxGeometry relative="1" as="geometry" />
        </mxCell>
        <mxCell id="05g8EHRjyKozir9RmIMq-191" style="edgeStyle=orthogonalEdgeStyle;rounded=0;orthogonalLoop=1;jettySize=auto;html=1;exitX=0.5;exitY=1;exitDx=0;exitDy=0;entryX=0.5;entryY=0;entryDx=0;entryDy=0;entryPerimeter=0;" edge="1" parent="1" source="05g8EHRjyKozir9RmIMq-185" target="05g8EHRjyKozir9RmIMq-187">
          <mxGeometry relative="1" as="geometry" />
        </mxCell>
        <mxCell id="05g8EHRjyKozir9RmIMq-185" value="&lt;span style=&quot;font-size: 12px;&quot;&gt;enable external inetrrupt source and trigger edge&lt;/span&gt;" style="whiteSpace=wrap;html=1;fontSize=16;fillColor=#d5e8d4;strokeColor=#82b366;rounded=0;" vertex="1" parent="1">
          <mxGeometry x="-2060" y="93" width="128.25" height="60" as="geometry" />
        </mxCell>
        <mxCell id="05g8EHRjyKozir9RmIMq-186" style="edgeStyle=orthogonalEdgeStyle;rounded=0;orthogonalLoop=1;jettySize=auto;html=1;exitX=0.5;exitY=1;exitDx=0;exitDy=0;entryX=0.5;entryY=0;entryDx=0;entryDy=0;" edge="1" parent="1" source="05g8EHRjyKozir9RmIMq-183" target="05g8EHRjyKozir9RmIMq-185">
          <mxGeometry relative="1" as="geometry" />
        </mxCell>
        <UserObject label="&lt;div style=&quot;font-size: 1px&quot;&gt;&lt;font style=&quot;font-size: 11.29px; direction: ltr; letter-spacing: 0px; line-height: 120%; opacity: 1;&quot;&gt;end&lt;/font&gt;&lt;/div&gt;" Function="EN_DIO_Error_T DIO_init(uint8_t pinNumber, EN_DIO_PORT_T portNumber, EN_DIO_DIRECTION_T direction);" tags="Flowchart" id="05g8EHRjyKozir9RmIMq-187">
          <mxCell style="verticalAlign=middle;align=center;overflow=width;vsdxID=30;fillColor=#dae8fc;shape=stencil(tVLREoIgEPwaHnEQxsl3s/9gEpSJwDko7e+DsEkze2l627vdu5uFRaxyHe8FosR5sCcxqMZ3iO0Rpcp0ApQPCLEasUpaEC3Yi2lS3fOojOhsr3HDmObyMtsVcYqS29Qh5FEfklwrM5OXeUa/yjkcAwfr7TDpiyTfXvjkMR+Vw2A998qaBac5tAKHU1hq3i4oNwjRr9ofvayt/+Rk+yX/4iWA159KpXWKxJx/z0Bopfyw+g4=);strokeColor=#6c8ebf;spacingTop=-1;spacingBottom=-1;spacingLeft=-1;spacingRight=-1;points=[[0.5,1,0],[0.5,0,0],[0,0.5,0],[1,0.5,0]];labelBackgroundColor=none;rounded=1;html=1;whiteSpace=wrap;fontFamily=Calibri;" vertex="1" parent="1">
            <mxGeometry x="-2046.3799999999999" y="190" width="101" height="38" as="geometry" />
          </mxCell>
        </UserObject>
        <UserObject label="&lt;div style=&quot;font-size: 1px&quot;&gt;&lt;font style=&quot;font-size: 11.29px; direction: ltr; letter-spacing: 0px; line-height: 120%; opacity: 1;&quot;&gt;start&lt;/font&gt;&lt;/div&gt;" Function="EN_DIO_Error_T DIO_init(uint8_t pinNumber, EN_DIO_PORT_T portNumber, EN_DIO_DIRECTION_T direction);" tags="Flowchart" id="05g8EHRjyKozir9RmIMq-192">
          <mxCell style="verticalAlign=middle;align=center;overflow=width;vsdxID=30;fillColor=#dae8fc;shape=stencil(tVLREoIgEPwaHnEQxsl3s/9gEpSJwDko7e+DsEkze2l627vdu5uFRaxyHe8FosR5sCcxqMZ3iO0Rpcp0ApQPCLEasUpaEC3Yi2lS3fOojOhsr3HDmObyMtsVcYqS29Qh5FEfklwrM5OXeUa/yjkcAwfr7TDpiyTfXvjkMR+Vw2A998qaBac5tAKHU1hq3i4oNwjRr9ofvayt/+Rk+yX/4iWA159KpXWKxJx/z0Bopfyw+g4=);strokeColor=#6c8ebf;spacingTop=-1;spacingBottom=-1;spacingLeft=-1;spacingRight=-1;points=[[0.5,1,0],[0.5,0,0],[0,0.5,0],[1,0.5,0]];labelBackgroundColor=none;rounded=1;html=1;whiteSpace=wrap;fontFamily=Calibri;" vertex="1" parent="1">
            <mxGeometry x="-1835.4999999999998" y="-82" width="101" height="38" as="geometry" />
          </mxCell>
        </UserObject>
        <mxCell id="05g8EHRjyKozir9RmIMq-193" value="Icu_setCallBack" style="text;html=1;strokeColor=#666666;fillColor=#f5f5f5;align=center;verticalAlign=middle;whiteSpace=wrap;rounded=0;fontColor=#333333;" vertex="1" parent="1">
          <mxGeometry x="-1839.9999999999998" y="-130" width="110" height="30" as="geometry" />
        </mxCell>
        <mxCell id="05g8EHRjyKozir9RmIMq-197" style="edgeStyle=orthogonalEdgeStyle;rounded=0;orthogonalLoop=1;jettySize=auto;html=1;exitX=0.5;exitY=1;exitDx=0;exitDy=0;" edge="1" parent="1" source="05g8EHRjyKozir9RmIMq-194" target="05g8EHRjyKozir9RmIMq-196">
          <mxGeometry relative="1" as="geometry" />
        </mxCell>
        <mxCell id="05g8EHRjyKozir9RmIMq-194" value="&lt;font style=&quot;font-size: 12px;&quot;&gt;set external interrupt callback&lt;br&gt;&lt;/font&gt;" style="rounded=0;whiteSpace=wrap;html=1;fontSize=16;fillColor=#d5e8d4;strokeColor=#82b366;" vertex="1" parent="1">
          <mxGeometry x="-1836.74" y="-11" width="108.86" height="64" as="geometry" />
        </mxCell>
        <mxCell id="05g8EHRjyKozir9RmIMq-195" style="edgeStyle=orthogonalEdgeStyle;rounded=0;orthogonalLoop=1;jettySize=auto;html=1;exitX=0.5;exitY=1;exitDx=0;exitDy=0;exitPerimeter=0;entryX=0.5;entryY=0;entryDx=0;entryDy=0;" edge="1" parent="1" source="05g8EHRjyKozir9RmIMq-192" target="05g8EHRjyKozir9RmIMq-194">
          <mxGeometry relative="1" as="geometry" />
        </mxCell>
        <UserObject label="&lt;div style=&quot;font-size: 1px&quot;&gt;&lt;font style=&quot;font-size: 11.29px; direction: ltr; letter-spacing: 0px; line-height: 120%; opacity: 1;&quot;&gt;end&lt;/font&gt;&lt;/div&gt;" Function="EN_DIO_Error_T DIO_init(uint8_t pinNumber, EN_DIO_PORT_T portNumber, EN_DIO_DIRECTION_T direction);" tags="Flowchart" id="05g8EHRjyKozir9RmIMq-196">
          <mxCell style="verticalAlign=middle;align=center;overflow=width;vsdxID=30;fillColor=#dae8fc;shape=stencil(tVLREoIgEPwaHnEQxsl3s/9gEpSJwDko7e+DsEkze2l627vdu5uFRaxyHe8FosR5sCcxqMZ3iO0Rpcp0ApQPCLEasUpaEC3Yi2lS3fOojOhsr3HDmObyMtsVcYqS29Qh5FEfklwrM5OXeUa/yjkcAwfr7TDpiyTfXvjkMR+Vw2A998qaBac5tAKHU1hq3i4oNwjRr9ofvayt/+Rk+yX/4iWA159KpXWKxJx/z0Bopfyw+g4=);strokeColor=#6c8ebf;spacingTop=-1;spacingBottom=-1;spacingLeft=-1;spacingRight=-1;points=[[0.5,1,0],[0.5,0,0],[0,0.5,0],[1,0.5,0]];labelBackgroundColor=none;rounded=1;html=1;whiteSpace=wrap;fontFamily=Calibri;" vertex="1" parent="1">
            <mxGeometry x="-1832.8099999999997" y="80" width="101" height="38" as="geometry" />
          </mxCell>
        </UserObject>
        <mxCell id="05g8EHRjyKozir9RmIMq-202" style="edgeStyle=orthogonalEdgeStyle;rounded=0;orthogonalLoop=1;jettySize=auto;html=1;exitX=0.5;exitY=1;exitDx=0;exitDy=0;exitPerimeter=0;entryX=0.5;entryY=0;entryDx=0;entryDy=0;entryPerimeter=0;" edge="1" parent="1" source="05g8EHRjyKozir9RmIMq-198" target="05g8EHRjyKozir9RmIMq-200">
          <mxGeometry relative="1" as="geometry" />
        </mxCell>
        <UserObject label="&lt;div style=&quot;font-size: 1px&quot;&gt;&lt;font style=&quot;font-size: 11.29px; direction: ltr; letter-spacing: 0px; line-height: 120%; opacity: 1;&quot;&gt;start&lt;/font&gt;&lt;/div&gt;" Function="EN_DIO_Error_T DIO_init(uint8_t pinNumber, EN_DIO_PORT_T portNumber, EN_DIO_DIRECTION_T direction);" tags="Flowchart" id="05g8EHRjyKozir9RmIMq-198">
          <mxCell style="verticalAlign=middle;align=center;overflow=width;vsdxID=30;fillColor=#dae8fc;shape=stencil(tVLREoIgEPwaHnEQxsl3s/9gEpSJwDko7e+DsEkze2l627vdu5uFRaxyHe8FosR5sCcxqMZ3iO0Rpcp0ApQPCLEasUpaEC3Yi2lS3fOojOhsr3HDmObyMtsVcYqS29Qh5FEfklwrM5OXeUa/yjkcAwfr7TDpiyTfXvjkMR+Vw2A998qaBac5tAKHU1hq3i4oNwjRr9ofvayt/+Rk+yX/4iWA159KpXWKxJx/z0Bopfyw+g4=);strokeColor=#6c8ebf;spacingTop=-1;spacingBottom=-1;spacingLeft=-1;spacingRight=-1;points=[[0.5,1,0],[0.5,0,0],[0,0.5,0],[1,0.5,0]];labelBackgroundColor=none;rounded=1;html=1;whiteSpace=wrap;fontFamily=Calibri;" vertex="1" parent="1">
            <mxGeometry x="-1515.4999999999998" y="-82" width="101" height="38" as="geometry" />
          </mxCell>
        </UserObject>
        <mxCell id="05g8EHRjyKozir9RmIMq-199" value="Icu_setEdgeDetectionType" style="text;html=1;strokeColor=#666666;fillColor=#f5f5f5;align=center;verticalAlign=middle;whiteSpace=wrap;rounded=0;fontColor=#333333;" vertex="1" parent="1">
          <mxGeometry x="-1540" y="-130" width="150" height="30" as="geometry" />
        </mxCell>
        <mxCell id="05g8EHRjyKozir9RmIMq-204" value="true" style="edgeStyle=orthogonalEdgeStyle;rounded=0;orthogonalLoop=1;jettySize=auto;html=1;entryX=0.5;entryY=0;entryDx=0;entryDy=0;" edge="1" parent="1" source="05g8EHRjyKozir9RmIMq-200" target="05g8EHRjyKozir9RmIMq-203">
          <mxGeometry relative="1" as="geometry" />
        </mxCell>
        <mxCell id="05g8EHRjyKozir9RmIMq-206" value="false" style="edgeStyle=orthogonalEdgeStyle;rounded=0;orthogonalLoop=1;jettySize=auto;html=1;exitX=0;exitY=0.5;exitDx=0;exitDy=0;exitPerimeter=0;entryX=0.5;entryY=0;entryDx=0;entryDy=0;" edge="1" parent="1" source="05g8EHRjyKozir9RmIMq-200" target="05g8EHRjyKozir9RmIMq-205">
          <mxGeometry relative="1" as="geometry" />
        </mxCell>
        <UserObject label="if(edgeType==RISING)" Function="EN_DIO_Error_T DIO_init(uint8_t pinNumber, EN_DIO_PORT_T portNumber, EN_DIO_DIRECTION_T direction);" tags="Flowchart" id="05g8EHRjyKozir9RmIMq-200">
          <mxCell style="vsdxID=219;fillColor=#fff2cc;shape=stencil(UzV2Ls5ILEhVNTIoLinKz04tz0wpyVA1dlE1MsrMy0gtyiwBslSNXVWNndPyi1LTi/JL81Ig/IJEkEoQKze/DGRCBUSfAUiHkUElhGcK4bpBVOZk5iGpNEVVikeloQHZpsK0YlWLz1QgA+HFtMycHEgIIcujBwlQCBKcxq4A);strokeColor=#d6b656;spacingTop=-1;spacingBottom=-1;spacingLeft=-1;spacingRight=-1;points=[[0,0.5,0],[1,0.5,0],[0.5,0,0],[0.5,1,0]];labelBackgroundColor=none;rounded=1;html=1;whiteSpace=wrap;fontFamily=Calibri;" vertex="1" parent="1">
            <mxGeometry x="-1527.75" y="-11" width="125.5" height="81" as="geometry" />
          </mxCell>
        </UserObject>
        <mxCell id="05g8EHRjyKozir9RmIMq-201" value="&lt;div style=&quot;font-size: 1px&quot;&gt;&lt;br&gt;&lt;/div&gt;" style="text;vsdxID=219;fillColor=none;gradientColor=none;strokeColor=none;spacingTop=-1;spacingBottom=-1;spacingLeft=-1;spacingRight=-1;points=[[0,0.5,0],[1,0.5,0],[0.5,0,0],[0.5,1,0]];labelBackgroundColor=none;rounded=1;html=1;whiteSpace=wrap;verticalAlign=middle;align=center;overflow=width;;html=1;fontColor=#000000;fontFamily=Calibri;" vertex="1" parent="05g8EHRjyKozir9RmIMq-200">
          <mxGeometry x="10.52460396039604" y="9.943815789473685" width="105.20876237623763" height="60.909868421052636" as="geometry" />
        </mxCell>
        <mxCell id="05g8EHRjyKozir9RmIMq-211" style="edgeStyle=orthogonalEdgeStyle;rounded=0;orthogonalLoop=1;jettySize=auto;html=1;exitX=0.5;exitY=1;exitDx=0;exitDy=0;entryX=1;entryY=0.5;entryDx=0;entryDy=0;entryPerimeter=0;" edge="1" parent="1" source="05g8EHRjyKozir9RmIMq-203" target="05g8EHRjyKozir9RmIMq-207">
          <mxGeometry relative="1" as="geometry" />
        </mxCell>
        <mxCell id="05g8EHRjyKozir9RmIMq-203" value="&lt;font style=&quot;font-size: 12px;&quot;&gt;change interrupt trigger to rising edge&lt;br&gt;&lt;/font&gt;" style="rounded=0;whiteSpace=wrap;html=1;fontSize=16;fillColor=#d5e8d4;strokeColor=#82b366;" vertex="1" parent="1">
          <mxGeometry x="-1370" y="67" width="120" height="64" as="geometry" />
        </mxCell>
        <mxCell id="05g8EHRjyKozir9RmIMq-210" style="edgeStyle=orthogonalEdgeStyle;rounded=0;orthogonalLoop=1;jettySize=auto;html=1;exitX=0.5;exitY=1;exitDx=0;exitDy=0;entryX=0;entryY=0.5;entryDx=0;entryDy=0;entryPerimeter=0;" edge="1" parent="1" source="05g8EHRjyKozir9RmIMq-205" target="05g8EHRjyKozir9RmIMq-207">
          <mxGeometry relative="1" as="geometry" />
        </mxCell>
        <mxCell id="05g8EHRjyKozir9RmIMq-205" value="&lt;font style=&quot;font-size: 12px;&quot;&gt;change interrupt trigger to falling edge&lt;br&gt;&lt;/font&gt;" style="rounded=0;whiteSpace=wrap;html=1;fontSize=16;fillColor=#d5e8d4;strokeColor=#82b366;" vertex="1" parent="1">
          <mxGeometry x="-1660" y="70" width="120" height="64" as="geometry" />
        </mxCell>
        <UserObject label="&lt;div style=&quot;font-size: 1px&quot;&gt;&lt;font style=&quot;font-size: 11.29px; direction: ltr; letter-spacing: 0px; line-height: 120%; opacity: 1;&quot;&gt;end&lt;/font&gt;&lt;/div&gt;" Function="EN_DIO_Error_T DIO_init(uint8_t pinNumber, EN_DIO_PORT_T portNumber, EN_DIO_DIRECTION_T direction);" tags="Flowchart" id="05g8EHRjyKozir9RmIMq-207">
          <mxCell style="verticalAlign=middle;align=center;overflow=width;vsdxID=30;fillColor=#dae8fc;shape=stencil(tVLREoIgEPwaHnEQxsl3s/9gEpSJwDko7e+DsEkze2l627vdu5uFRaxyHe8FosR5sCcxqMZ3iO0Rpcp0ApQPCLEasUpaEC3Yi2lS3fOojOhsr3HDmObyMtsVcYqS29Qh5FEfklwrM5OXeUa/yjkcAwfr7TDpiyTfXvjkMR+Vw2A998qaBac5tAKHU1hq3i4oNwjRr9ofvayt/+Rk+yX/4iWA159KpXWKxJx/z0Bopfyw+g4=);strokeColor=#6c8ebf;spacingTop=-1;spacingBottom=-1;spacingLeft=-1;spacingRight=-1;points=[[0.5,1,0],[0.5,0,0],[0,0.5,0],[1,0.5,0]];labelBackgroundColor=none;rounded=1;html=1;whiteSpace=wrap;fontFamily=Calibri;" vertex="1" parent="1">
            <mxGeometry x="-1509.9999999999998" y="180" width="101" height="38" as="geometry" />
          </mxCell>
        </UserObject>
        <mxCell id="05g8EHRjyKozir9RmIMq-212" value="Icu_getInputCaptureValue" style="text;html=1;strokeColor=#666666;fillColor=#f5f5f5;align=center;verticalAlign=middle;whiteSpace=wrap;rounded=0;fontColor=#333333;" vertex="1" parent="1">
          <mxGeometry x="-1170" y="-130" width="150" height="30" as="geometry" />
        </mxCell>
        <mxCell id="05g8EHRjyKozir9RmIMq-215" style="edgeStyle=orthogonalEdgeStyle;rounded=0;orthogonalLoop=1;jettySize=auto;html=1;exitX=0.5;exitY=1;exitDx=0;exitDy=0;exitPerimeter=0;entryX=0.5;entryY=0;entryDx=0;entryDy=0;" edge="1" parent="1" source="05g8EHRjyKozir9RmIMq-213" target="05g8EHRjyKozir9RmIMq-214">
          <mxGeometry relative="1" as="geometry" />
        </mxCell>
        <UserObject label="&lt;div style=&quot;font-size: 1px&quot;&gt;&lt;font style=&quot;font-size: 11.29px; direction: ltr; letter-spacing: 0px; line-height: 120%; opacity: 1;&quot;&gt;start&lt;/font&gt;&lt;/div&gt;" Function="EN_DIO_Error_T DIO_init(uint8_t pinNumber, EN_DIO_PORT_T portNumber, EN_DIO_DIRECTION_T direction);" tags="Flowchart" id="05g8EHRjyKozir9RmIMq-213">
          <mxCell style="verticalAlign=middle;align=center;overflow=width;vsdxID=30;fillColor=#dae8fc;shape=stencil(tVLREoIgEPwaHnEQxsl3s/9gEpSJwDko7e+DsEkze2l627vdu5uFRaxyHe8FosR5sCcxqMZ3iO0Rpcp0ApQPCLEasUpaEC3Yi2lS3fOojOhsr3HDmObyMtsVcYqS29Qh5FEfklwrM5OXeUa/yjkcAwfr7TDpiyTfXvjkMR+Vw2A998qaBac5tAKHU1hq3i4oNwjRr9ofvayt/+Rk+yX/4iWA159KpXWKxJx/z0Bopfyw+g4=);strokeColor=#6c8ebf;spacingTop=-1;spacingBottom=-1;spacingLeft=-1;spacingRight=-1;points=[[0.5,1,0],[0.5,0,0],[0,0.5,0],[1,0.5,0]];labelBackgroundColor=none;rounded=1;html=1;whiteSpace=wrap;fontFamily=Calibri;" vertex="1" parent="1">
            <mxGeometry x="-1145.4999999999998" y="-82" width="101" height="38" as="geometry" />
          </mxCell>
        </UserObject>
        <mxCell id="05g8EHRjyKozir9RmIMq-217" style="edgeStyle=orthogonalEdgeStyle;rounded=0;orthogonalLoop=1;jettySize=auto;html=1;exitX=0.5;exitY=1;exitDx=0;exitDy=0;entryX=0.5;entryY=0;entryDx=0;entryDy=0;entryPerimeter=0;" edge="1" parent="1" source="05g8EHRjyKozir9RmIMq-214" target="05g8EHRjyKozir9RmIMq-216">
          <mxGeometry relative="1" as="geometry" />
        </mxCell>
        <mxCell id="05g8EHRjyKozir9RmIMq-214" value="&lt;font style=&quot;font-size: 12px;&quot;&gt;return timer value&lt;/font&gt;" style="rounded=0;whiteSpace=wrap;html=1;fontSize=16;fillColor=#d5e8d4;strokeColor=#82b366;" vertex="1" parent="1">
          <mxGeometry x="-1145.5" y="-11" width="103.5" height="44" as="geometry" />
        </mxCell>
        <UserObject label="&lt;div style=&quot;font-size: 1px&quot;&gt;&lt;font style=&quot;font-size: 11.29px; direction: ltr; letter-spacing: 0px; line-height: 120%; opacity: 1;&quot;&gt;end&lt;/font&gt;&lt;/div&gt;" Function="EN_DIO_Error_T DIO_init(uint8_t pinNumber, EN_DIO_PORT_T portNumber, EN_DIO_DIRECTION_T direction);" tags="Flowchart" id="05g8EHRjyKozir9RmIMq-216">
          <mxCell style="verticalAlign=middle;align=center;overflow=width;vsdxID=30;fillColor=#dae8fc;shape=stencil(tVLREoIgEPwaHnEQxsl3s/9gEpSJwDko7e+DsEkze2l627vdu5uFRaxyHe8FosR5sCcxqMZ3iO0Rpcp0ApQPCLEasUpaEC3Yi2lS3fOojOhsr3HDmObyMtsVcYqS29Qh5FEfklwrM5OXeUa/yjkcAwfr7TDpiyTfXvjkMR+Vw2A998qaBac5tAKHU1hq3i4oNwjRr9ofvayt/+Rk+yX/4iWA159KpXWKxJx/z0Bopfyw+g4=);strokeColor=#6c8ebf;spacingTop=-1;spacingBottom=-1;spacingLeft=-1;spacingRight=-1;points=[[0.5,1,0],[0.5,0,0],[0,0.5,0],[1,0.5,0]];labelBackgroundColor=none;rounded=1;html=1;whiteSpace=wrap;fontFamily=Calibri;" vertex="1" parent="1">
            <mxGeometry x="-1144.2499999999998" y="70" width="101" height="38" as="geometry" />
          </mxCell>
        </UserObject>
        <mxCell id="05g8EHRjyKozir9RmIMq-218" value="Icu_clearTimerValue" style="text;html=1;strokeColor=#666666;fillColor=#f5f5f5;align=center;verticalAlign=middle;whiteSpace=wrap;rounded=0;fontColor=#333333;" vertex="1" parent="1">
          <mxGeometry x="-960" y="-130" width="150" height="30" as="geometry" />
        </mxCell>
        <mxCell id="05g8EHRjyKozir9RmIMq-219" style="edgeStyle=orthogonalEdgeStyle;rounded=0;orthogonalLoop=1;jettySize=auto;html=1;exitX=0.5;exitY=1;exitDx=0;exitDy=0;exitPerimeter=0;entryX=0.5;entryY=0;entryDx=0;entryDy=0;" edge="1" parent="1" source="05g8EHRjyKozir9RmIMq-220" target="05g8EHRjyKozir9RmIMq-222">
          <mxGeometry relative="1" as="geometry" />
        </mxCell>
        <UserObject label="&lt;div style=&quot;font-size: 1px&quot;&gt;&lt;font style=&quot;font-size: 11.29px; direction: ltr; letter-spacing: 0px; line-height: 120%; opacity: 1;&quot;&gt;start&lt;/font&gt;&lt;/div&gt;" Function="EN_DIO_Error_T DIO_init(uint8_t pinNumber, EN_DIO_PORT_T portNumber, EN_DIO_DIRECTION_T direction);" tags="Flowchart" id="05g8EHRjyKozir9RmIMq-220">
          <mxCell style="verticalAlign=middle;align=center;overflow=width;vsdxID=30;fillColor=#dae8fc;shape=stencil(tVLREoIgEPwaHnEQxsl3s/9gEpSJwDko7e+DsEkze2l627vdu5uFRaxyHe8FosR5sCcxqMZ3iO0Rpcp0ApQPCLEasUpaEC3Yi2lS3fOojOhsr3HDmObyMtsVcYqS29Qh5FEfklwrM5OXeUa/yjkcAwfr7TDpiyTfXvjkMR+Vw2A998qaBac5tAKHU1hq3i4oNwjRr9ofvayt/+Rk+yX/4iWA159KpXWKxJx/z0Bopfyw+g4=);strokeColor=#6c8ebf;spacingTop=-1;spacingBottom=-1;spacingLeft=-1;spacingRight=-1;points=[[0.5,1,0],[0.5,0,0],[0,0.5,0],[1,0.5,0]];labelBackgroundColor=none;rounded=1;html=1;whiteSpace=wrap;fontFamily=Calibri;" vertex="1" parent="1">
            <mxGeometry x="-935.4999999999998" y="-82" width="101" height="38" as="geometry" />
          </mxCell>
        </UserObject>
        <mxCell id="05g8EHRjyKozir9RmIMq-221" style="edgeStyle=orthogonalEdgeStyle;rounded=0;orthogonalLoop=1;jettySize=auto;html=1;exitX=0.5;exitY=1;exitDx=0;exitDy=0;entryX=0.5;entryY=0;entryDx=0;entryDy=0;entryPerimeter=0;" edge="1" parent="1" source="05g8EHRjyKozir9RmIMq-222" target="05g8EHRjyKozir9RmIMq-223">
          <mxGeometry relative="1" as="geometry" />
        </mxCell>
        <mxCell id="05g8EHRjyKozir9RmIMq-222" value="&lt;font style=&quot;font-size: 12px;&quot;&gt;clear timer value&lt;/font&gt;" style="rounded=0;whiteSpace=wrap;html=1;fontSize=16;fillColor=#d5e8d4;strokeColor=#82b366;" vertex="1" parent="1">
          <mxGeometry x="-935.5" y="-11" width="103.5" height="44" as="geometry" />
        </mxCell>
        <UserObject label="&lt;div style=&quot;font-size: 1px&quot;&gt;&lt;font style=&quot;font-size: 11.29px; direction: ltr; letter-spacing: 0px; line-height: 120%; opacity: 1;&quot;&gt;end&lt;/font&gt;&lt;/div&gt;" Function="EN_DIO_Error_T DIO_init(uint8_t pinNumber, EN_DIO_PORT_T portNumber, EN_DIO_DIRECTION_T direction);" tags="Flowchart" id="05g8EHRjyKozir9RmIMq-223">
          <mxCell style="verticalAlign=middle;align=center;overflow=width;vsdxID=30;fillColor=#dae8fc;shape=stencil(tVLREoIgEPwaHnEQxsl3s/9gEpSJwDko7e+DsEkze2l627vdu5uFRaxyHe8FosR5sCcxqMZ3iO0Rpcp0ApQPCLEasUpaEC3Yi2lS3fOojOhsr3HDmObyMtsVcYqS29Qh5FEfklwrM5OXeUa/yjkcAwfr7TDpiyTfXvjkMR+Vw2A998qaBac5tAKHU1hq3i4oNwjRr9ofvayt/+Rk+yX/4iWA159KpXWKxJx/z0Bopfyw+g4=);strokeColor=#6c8ebf;spacingTop=-1;spacingBottom=-1;spacingLeft=-1;spacingRight=-1;points=[[0.5,1,0],[0.5,0,0],[0,0.5,0],[1,0.5,0]];labelBackgroundColor=none;rounded=1;html=1;whiteSpace=wrap;fontFamily=Calibri;" vertex="1" parent="1">
            <mxGeometry x="-934.2499999999998" y="70" width="101" height="38" as="geometry" />
          </mxCell>
        </UserObject>
        <mxCell id="05g8EHRjyKozir9RmIMq-225" value="Icu_DeInit" style="text;html=1;strokeColor=#666666;fillColor=#f5f5f5;align=center;verticalAlign=middle;whiteSpace=wrap;rounded=0;fontColor=#333333;" vertex="1" parent="1">
          <mxGeometry x="-720" y="-130" width="150" height="30" as="geometry" />
        </mxCell>
        <mxCell id="05g8EHRjyKozir9RmIMq-226" style="edgeStyle=orthogonalEdgeStyle;rounded=0;orthogonalLoop=1;jettySize=auto;html=1;exitX=0.5;exitY=1;exitDx=0;exitDy=0;exitPerimeter=0;entryX=0.5;entryY=0;entryDx=0;entryDy=0;" edge="1" parent="1" source="05g8EHRjyKozir9RmIMq-227" target="05g8EHRjyKozir9RmIMq-229">
          <mxGeometry relative="1" as="geometry" />
        </mxCell>
        <UserObject label="&lt;div style=&quot;font-size: 1px&quot;&gt;&lt;font style=&quot;font-size: 11.29px; direction: ltr; letter-spacing: 0px; line-height: 120%; opacity: 1;&quot;&gt;start&lt;/font&gt;&lt;/div&gt;" Function="EN_DIO_Error_T DIO_init(uint8_t pinNumber, EN_DIO_PORT_T portNumber, EN_DIO_DIRECTION_T direction);" tags="Flowchart" id="05g8EHRjyKozir9RmIMq-227">
          <mxCell style="verticalAlign=middle;align=center;overflow=width;vsdxID=30;fillColor=#dae8fc;shape=stencil(tVLREoIgEPwaHnEQxsl3s/9gEpSJwDko7e+DsEkze2l627vdu5uFRaxyHe8FosR5sCcxqMZ3iO0Rpcp0ApQPCLEasUpaEC3Yi2lS3fOojOhsr3HDmObyMtsVcYqS29Qh5FEfklwrM5OXeUa/yjkcAwfr7TDpiyTfXvjkMR+Vw2A998qaBac5tAKHU1hq3i4oNwjRr9ofvayt/+Rk+yX/4iWA159KpXWKxJx/z0Bopfyw+g4=);strokeColor=#6c8ebf;spacingTop=-1;spacingBottom=-1;spacingLeft=-1;spacingRight=-1;points=[[0.5,1,0],[0.5,0,0],[0,0.5,0],[1,0.5,0]];labelBackgroundColor=none;rounded=1;html=1;whiteSpace=wrap;fontFamily=Calibri;" vertex="1" parent="1">
            <mxGeometry x="-695.4999999999998" y="-82" width="101" height="38" as="geometry" />
          </mxCell>
        </UserObject>
        <mxCell id="05g8EHRjyKozir9RmIMq-233" value="" style="edgeStyle=orthogonalEdgeStyle;rounded=0;orthogonalLoop=1;jettySize=auto;html=1;" edge="1" parent="1" source="05g8EHRjyKozir9RmIMq-229" target="05g8EHRjyKozir9RmIMq-232">
          <mxGeometry relative="1" as="geometry" />
        </mxCell>
        <mxCell id="05g8EHRjyKozir9RmIMq-229" value="&lt;font style=&quot;font-size: 12px;&quot;&gt;disable interrupt source&lt;/font&gt;" style="rounded=0;whiteSpace=wrap;html=1;fontSize=16;fillColor=#d5e8d4;strokeColor=#82b366;" vertex="1" parent="1">
          <mxGeometry x="-695.5" y="-11" width="103.5" height="44" as="geometry" />
        </mxCell>
        <UserObject label="&lt;div style=&quot;font-size: 1px&quot;&gt;&lt;font style=&quot;font-size: 11.29px; direction: ltr; letter-spacing: 0px; line-height: 120%; opacity: 1;&quot;&gt;end&lt;/font&gt;&lt;/div&gt;" Function="EN_DIO_Error_T DIO_init(uint8_t pinNumber, EN_DIO_PORT_T portNumber, EN_DIO_DIRECTION_T direction);" tags="Flowchart" id="05g8EHRjyKozir9RmIMq-230">
          <mxCell style="verticalAlign=middle;align=center;overflow=width;vsdxID=30;fillColor=#dae8fc;shape=stencil(tVLREoIgEPwaHnEQxsl3s/9gEpSJwDko7e+DsEkze2l627vdu5uFRaxyHe8FosR5sCcxqMZ3iO0Rpcp0ApQPCLEasUpaEC3Yi2lS3fOojOhsr3HDmObyMtsVcYqS29Qh5FEfklwrM5OXeUa/yjkcAwfr7TDpiyTfXvjkMR+Vw2A998qaBac5tAKHU1hq3i4oNwjRr9ofvayt/+Rk+yX/4iWA159KpXWKxJx/z0Bopfyw+g4=);strokeColor=#6c8ebf;spacingTop=-1;spacingBottom=-1;spacingLeft=-1;spacingRight=-1;points=[[0.5,1,0],[0.5,0,0],[0,0.5,0],[1,0.5,0]];labelBackgroundColor=none;rounded=1;html=1;whiteSpace=wrap;fontFamily=Calibri;" vertex="1" parent="1">
            <mxGeometry x="-695.4999999999998" y="134" width="101" height="38" as="geometry" />
          </mxCell>
        </UserObject>
        <mxCell id="05g8EHRjyKozir9RmIMq-234" style="edgeStyle=orthogonalEdgeStyle;rounded=0;orthogonalLoop=1;jettySize=auto;html=1;exitX=0.5;exitY=1;exitDx=0;exitDy=0;" edge="1" parent="1" source="05g8EHRjyKozir9RmIMq-232" target="05g8EHRjyKozir9RmIMq-230">
          <mxGeometry relative="1" as="geometry" />
        </mxCell>
        <mxCell id="05g8EHRjyKozir9RmIMq-232" value="&lt;font style=&quot;font-size: 12px;&quot;&gt;disable timer clock&lt;/font&gt;" style="rounded=0;whiteSpace=wrap;html=1;fontSize=16;fillColor=#d5e8d4;strokeColor=#82b366;" vertex="1" parent="1">
          <mxGeometry x="-695.5" y="64" width="103.5" height="44" as="geometry" />
        </mxCell>
      </root>
    </mxGraphModel>
  </diagram>
</mxfile>
